P2
128 128
63
9 4 3 30 48 31 39 36 40 10 18 46 26 51 9 39 13 8 18 32 26 9 55 1 3 48 48 36 10 4 9 46 29 14 1 9 32 57 1 34 50 49 50 4 53 28 26 28 44 24 5 52 48 15 42 9 56 50 10 60 28 23 50 35 33 23 51 37 5 57 39 13 32 9 31 15 21 23 60 48 54 49 44 42 1 25 24 56 35 4 9 60 32 30 28 60 14 31 1 45 0 42 25 19 1 24 40 57 12 4 12 10 56 57 17 51 39 44 44 35 1 57 59 6 37 60 4 28 
31 11 32 37 16 26 58 10 3 9 53 47 46 13 4 13 0 2 43 59 29 17 41 50 45 4 2 0 62 16 17 44 48 30 47 7 58 51 6 41 5 46 37 63 43 60 26 40 25 43 4 39 42 56 27 21 31 62 53 53 13 53 23 45 28 56 59 11 46 27 41 62 11 7 30 21 25 55 16 8 50 41 7 46 0 15 11 57 44 8 52 37 54 21 12 49 4 52 7 22 63 7 5 20 60 14 46 51 26 9 61 52 39 61 10 7 10 10 5 59 44 58 2 0 11 3 55 51 
26 23 55 62 43 17 31 8 34 20 56 12 33 17 1 9 42 47 15 33 39 60 6 1 54 61 5 48 20 33 4 24 15 11 14 55 47 9 44 12 42 45 34 19 53 2 15 60 1 26 17 50 48 23 19 19 28 36 48 17 18 12 62 46 9 31 35 45 11 38 29 27 34 36 24 57 10 31 10 62 23 30 51 33 19 9 28 3 13 23 21 1 45 22 16 21 62 53 62 59 59 1 55 23 36 49 19 9 60 38 18 35 18 46 12 51 60 25 58 60 20 31 48 25 29 15 11 51 
39 37 49 13 11 28 16 38 41 26 30 12 58 15 7 54 11 57 38 0 39 28 46 1 17 13 21 9 22 39 24 7 56 32 44 39 5 54 0 45 2 32 34 50 9 57 37 27 7 25 34 42 30 31 33 13 28 60 51 38 4 53 57 15 41 13 59 41 51 45 7 14 61 13 32 26 0 58 51 2 14 48 22 2 57 2 0 59 20 11 27 60 38 6 6 9 61 42 60 50 14 37 44 63 9 54 55 39 38 11 59 51 38 60 49 17 44 7 32 52 28 4 12 15 27 3 63 16 
25 1 20 13 9 25 4 57 40 2 49 51 13 24 59 20 46 1 17 63 6 5 14 23 5 60 3 2 0 19 19 33 54 0 5 27 40 45 25 12 27 7 63 57 13 44 27 10 21 51 11 55 18 19 14 50 48 50 43 49 33 46 43 5 56 16 51 17 48 37 26 61 51 37 10 29 41 34 59 7 24 7 26 45 24 13 42 6 19 53 22 15 54 20 44 24 25 11 18 2 54 55 7 38 38 57 35 40 15 62 41 10 9 13 7 19 6 44 17 22 10 18 45 63 42 35 40 54 
36 9 36 37 17 49 36 41 30 44 4 47 33 29 48 12 60 7 60 63 8 36 55 0 33 39 4 59 55 17 61 10 2 55 37 39 2 44 46 10 37 14 21 12 42 26 34 24 4 10 11 14 33 59 43 50 30 16 30 39 56 28 27 61 52 58 18 35 25 44 47 41 10 15 12 44 60 25 63 12 37 54 16 43 34 31 23 24 4 57 0 24 28 47 30 2 17 19 34 42 57 49 40 14 48 57 48 44 25 25 2 62 6 33 36 10 15 25 61 29 6 11 8 54 29 8 1 2 
11 2 32 52 18 46 8 29 16 20 46 8 28 15 4 52 31 36 44 19 47 52 61 18 29 59 60 8 62 12 35 3 17 20 1 46 12 37 45 29 53 42 61 22 21 13 36 52 57 51 46 59 54 50 55 40 57 13 2 0 24 15 10 12 14 14 49 46 32 59 20 32 61 48 25 44 3 61 12 31 20 59 18 14 49 42 38 41 9 27 63 57 10 6 10 17 34 9 52 37 14 51 53 57 28 52 2 24 25 17 6 35 41 55 38 62 59 43 50 13 27 28 43 15 57 15 60 1 
8 43 56 5 51 42 53 43 49 36 17 61 59 45 57 51 47 2 50 26 53 7 28 25 9 2 11 57 50 37 48 31 16 53 7 26 39 44 14 60 43 45 42 4 28 40 8 61 2 23 17 33 40 40 36 59 53 43 3 42 25 56 53 63 28 33 50 29 55 49 54 8 23 50 15 56 23 3 34 43 61 54 16 6 59 5 43 59 1 53 14 38 5 28 21 47 0 48 34 1 61 23 24 41 15 26 32 19 54 31 10 5 38 0 26 56 31 4 13 45 49 38 17 60 42 3 21 7 
19 27 12 23 13 39 8 22 44 9 62 37 52 42 29 8 45 58 56 33 32 16 60 4 34 43 25 15 34 52 24 61 35 37 20 27 54 37 60 31 54 39 7 37 60 15 25 7 52 41 63 60 42 14 1 50 28 58 30 53 22 11 28 39 56 11 53 61 14 60 4 31 38 45 5 56 51 4 30 37 11 45 57 32 53 25 35 22 17 37 18 61 32 44 10 52 25 34 43 61 61 42 58 3 44 44 38 44 30 45 7 8 46 39 52 21 45 10 52 12 35 60 44 53 1 51 24 5 
31 55 30 35 5 52 2 1 31 1 7 14 61 31 60 18 47 45 45 23 31 20 10 63 23 36 20 24 61 14 33 19 30 22 33 14 0 56 21 44 6 12 40 28 30 45 35 2 6 41 26 61 6 16 29 15 23 13 18 0 17 48 27 11 2 26 18 53 52 12 60 12 3 60 45 29 57 4 0 26 42 47 55 4 5 11 1 57 62 1 37 8 63 4 42 41 9 12 25 17 27 51 62 49 61 6 32 45 51 47 42 18 32 35 61 26 60 11 38 7 44 22 40 12 18 54 4 15 
56 62 3 1 27 0 13 40 35 44 61 7 21 41 29 47 7 51 3 18 56 32 49 17 52 40 4 49 26 40 52 3 2 17 17 32 28 12 61 29 19 32 62 61 29 2 44 32 0 4 52 48 12 21 42 8 46 7 15 25 61 30 14 61 36 11 20 15 56 53 57 22 6 34 17 13 22 18 14 55 18 60 62 47 18 26 49 47 56 39 50 55 31 22 30 8 29 54 51 43 48 28 54 30 10 44 6 2 49 39 53 32 62 31 38 11 2 21 40 63 16 22 19 28 33 31 10 1 
40 47 6 58 18 8 46 55 59 33 48 11 59 54 13 60 62 6 32 33 57 62 14 10 30 60 61 45 24 27 9 52 8 9 4 21 56 61 15 14 55 6 30 25 44 13 10 0 13 15 47 18 50 1 62 32 31 8 38 52 45 44 1 46 58 19 2 19 16 49 48 42 45 33 35 11 11 47 27 17 26 61 20 13 14 27 40 57 19 30 52 38 36 31 1 58 24 34 60 11 1 32 28 38 19 2 19 45 48 23 47 13 7 14 43 57 10 44 38 33 34 38 25 52 57 29 52 7 
14 52 48 24 28 33 56 7 45 60 16 42 36 3 22 2 63 22 10 22 12 14 45 62 63 36 58 61 13 0 11 60 27 18 23 8 27 62 45 40 47 37 11 5 63 51 53 50 22 36 29 54 28 19 8 6 15 15 34 6 52 42 27 20 57 37 48 42 53 5 15 60 19 22 37 25 43 58 39 5 3 44 18 63 63 17 57 30 1 13 56 21 19 37 10 55 60 57 51 14 10 12 12 56 47 58 54 17 30 14 19 42 8 8 37 31 14 49 19 50 30 52 42 16 39 17 14 51 
35 32 44 1 8 63 11 3 18 26 40 48 34 17 1 45 17 38 0 8 60 18 35 6 49 11 36 29 53 61 20 14 28 27 42 15 35 31 58 51 2 47 22 42 49 6 50 51 53 55 5 7 33 16 11 31 43 47 44 25 1 36 31 32 20 37 3 51 3 13 36 46 47 5 55 6 58 45 54 55 27 42 29 4 30 36 14 26 33 33 53 59 23 7 39 40 21 23 59 61 3 41 18 32 45 37 62 34 40 35 55 37 50 31 10 31 62 62 49 3 60 50 14 21 14 3 18 19 
13 6 23 4 49 28 56 13 40 33 34 17 60 20 27 62 4 9 16 62 52 51 58 36 41 25 24 35 10 40 26 47 8 0 5 50 7 16 3 17 2 19 38 3 63 40 2 22 57 32 36 52 30 58 19 6 40 47 23 28 58 36 55 51 56 27 50 43 36 26 54 17 10 32 9 38 25 37 44 22 5 48 2 1 7 34 47 26 39 35 44 13 44 33 19 21 61 2 13 36 41 8 53 51 9 15 6 18 20 45 25 0 44 59 39 58 58 9 55 60 24 49 14 29 49 34 45 57 
37 4 62 46 57 4 59 62 59 24 50 20 32 21 5 56 8 4 37 43 63 59 63 59 25 4 57 58 23 37 35 21 44 29 22 25 4 53 36 35 1 44 3 28 51 7 62 53 52 17 48 36 31 3 57 16 41 8 1 7 42 9 6 12 60 34 16 26 6 1 41 28 18 20 29 51 13 11 50 14 18 19 62 43 62 20 4 1 24 8 36 14 7 55 5 41 2 39 21 7 18 33 16 49 11 60 23 2 5 44 12 28 51 50 14 35 17 53 9 2 27 22 25 31 9 53 30 32 
13 45 36 7 20 12 31 17 45 43 45 31 49 33 57 47 58 18 2 0 19 53 61 50 26 53 9 40 12 32 14 50 42 38 56 19 19 57 26 45 19 7 31 26 56 44 25 53 51 2 38 28 5 29 19 54 0 56 36 63 17 4 24 63 57 63 33 15 15 63 19 24 45 0 11 30 25 53 12 53 22 30 42 47 51 39 34 54 51 1 34 9 20 20 55 43 62 63 1 63 10 29 6 21 53 54 30 6 12 5 34 45 8 46 13 1 10 52 30 54 15 43 47 39 38 35 28 27 
29 6 1 47 18 46 43 35 23 31 58 18 31 41 41 44 28 15 61 39 20 8 23 5 8 19 34 13 0 32 41 50 38 45 55 26 61 8 63 51 42 42 43 27 52 28 55 46 19 33 5 22 31 37 21 34 22 9 12 26 43 57 39 4 3 39 3 10 33 8 43 35 18 18 12 7 26 29 9 25 7 54 54 27 30 57 58 22 43 17 24 53 53 33 34 41 54 22 44 54 40 40 5 42 28 11 60 46 51 15 55 22 19 16 25 16 37 28 58 6 46 17 17 49 36 29 21 52 
26 42 2 53 39 0 41 51 59 22 17 52 29 13 11 36 7 36 44 22 3 20 2 50 4 14 48 28 21 49 32 17 50 29 33 6 10 58 20 25 47 47 55 42 44 56 62 57 45 0 16 11 43 28 15 63 57 11 0 23 26 61 58 1 12 42 2 41 36 55 54 34 14 25 53 53 42 17 17 28 13 25 36 55 20 42 19 4 26 61 15 0 34 27 13 7 38 62 51 41 45 20 40 9 42 4 37 32 6 58 39 12 50 24 34 27 31 30 29 31 44 58 19 22 38 2 8 48 
6 38 37 57 0 37 51 21 56 59 23 39 58 8 58 25 14 61 24 40 18 32 55 28 10 2 48 22 8 31 50 23 45 47 3 14 7 40 11 16 12 29 8 22 42 44 6 40 55 56 21 1 46 3 17 34 38 58 43 48 25 18 57 43 31 60 16 52 41 21 40 31 38 34 62 5 61 38 49 0 15 29 37 49 0 30 6 23 9 17 59 15 46 49 3 48 49 18 38 15 53 37 14 58 28 50 30 39 5 15 26 34 53 63 24 20 6 38 12 10 44 13 13 47 54 51 36 26 
23 56 9 35 43 23 59 47 21 21 60 45 33 33 17 20 29 53 0 50 30 50 7 58 12 14 56 42 24 27 50 50 56 57 8 3 12 28 31 37 33 58 43 42 4 44 42 49 9 57 51 6 56 33 25 51 4 45 27 58 14 27 46 34 0 15 62 4 62 45 9 58 17 6 9 59 16 3 17 24 32 11 25 27 37 31 62 37 37 0 6 12 11 37 38 39 31 50 33 33 19 19 14 52 13 38 61 45 30 56 32 37 54 27 19 25 61 25 27 5 43 40 8 12 29 17 6 8 
39 3 8 15 27 61 38 13 15 54 36 28 24 7 36 38 6 28 29 41 40 31 9 45 28 2 2 25 47 51 52 36 37 12 25 26 24 35 1 8 39 31 27 34 36 47 8 56 37 23 1 51 2 36 48 45 10 63 54 14 17 56 20 47 44 20 2 59 13 46 16 8 11 32 58 29 48 38 24 4 37 40 51 4 3 14 56 30 27 24 49 48 35 47 41 47 38 8 0 19 43 40 6 27 32 26 39 46 9 7 34 29 52 59 36 16 47 47 26 26 25 45 49 56 58 33 14 43 
44 28 29 63 8 49 52 37 12 39 20 4 40 1 1 3 37 15 31 63 56 28 36 24 62 8 6 44 58 37 19 13 6 37 7 40 49 48 47 9 38 17 13 4 42 6 15 11 52 55 23 53 50 11 55 20 12 52 63 19 54 2 38 18 32 43 34 27 25 22 29 15 52 30 54 23 26 60 28 59 56 13 17 55 44 40 43 60 0 8 55 28 22 15 58 38 16 47 58 53 61 21 46 26 61 14 14 26 10 20 11 37 4 53 24 30 63 17 12 58 20 42 49 1 54 8 27 32 
13 34 57 10 35 26 8 41 23 58 19 7 49 9 45 60 17 29 1 59 56 10 57 23 8 1 61 6 18 7 2 18 26 20 61 1 47 7 55 41 63 28 46 8 21 21 20 3 3 17 41 22 27 17 56 22 28 2 40 4 41 43 25 17 52 18 3 50 21 33 19 32 51 4 45 35 26 24 44 36 55 33 23 12 25 61 31 46 15 38 31 23 33 41 6 0 53 26 40 45 35 45 29 46 58 53 35 34 11 13 18 52 22 57 62 30 45 0 47 55 3 52 63 62 4 61 63 27 
39 9 6 38 29 25 40 25 45 36 58 57 26 57 46 31 20 50 26 42 61 60 38 22 10 29 4 61 44 61 33 48 17 2 56 55 25 58 17 25 54 19 1 3 63 50 55 13 32 20 50 20 21 14 31 19 13 30 18 33 17 58 60 59 25 32 36 42 0 37 31 34 18 63 17 53 40 27 16 44 12 9 24 8 16 56 26 26 29 42 30 50 60 34 52 4 13 57 57 17 48 58 56 51 31 27 57 26 36 41 46 25 11 36 49 58 62 51 13 41 50 20 46 50 0 48 10 12 
49 5 5 17 50 39 17 61 23 42 53 47 56 7 0 53 43 28 16 42 29 30 27 10 12 48 3 57 7 27 49 57 4 46 13 3 58 34 21 60 5 58 9 47 63 6 55 6 52 6 33 37 53 32 18 0 56 30 56 24 63 51 22 2 38 46 28 5 55 50 57 30 61 13 11 56 63 42 1 27 25 47 35 49 49 52 41 47 0 8 33 9 6 41 46 33 19 35 57 4 21 19 23 13 33 18 51 50 33 33 57 14 15 21 57 58 31 55 4 59 48 44 4 42 15 61 1 50 
18 33 40 31 7 58 2 36 42 10 50 59 27 11 19 9 47 56 14 63 61 16 2 56 22 22 19 33 13 45 9 0 57 51 25 5 22 35 21 2 38 24 20 4 4 34 29 43 32 35 8 6 19 60 48 39 39 17 56 16 45 18 12 37 21 61 38 42 20 51 51 5 40 26 39 45 36 6 29 32 24 50 46 6 7 7 30 35 5 40 3 27 51 44 45 32 48 23 23 61 29 56 41 4 3 22 58 10 18 21 47 30 60 27 50 43 25 4 37 11 30 35 30 1 41 27 4 22 
30 35 42 58 17 46 10 44 21 41 55 45 57 32 8 40 23 58 61 37 62 24 46 23 59 50 21 44 32 33 58 41 47 47 43 43 44 33 45 34 55 16 2 39 5 56 47 58 36 16 29 30 1 28 11 4 3 15 44 12 20 23 16 36 26 36 25 59 17 51 22 30 19 15 53 53 62 53 8 33 22 43 35 51 46 19 18 40 36 2 29 61 3 54 4 14 51 61 42 59 19 58 20 38 37 41 63 58 41 33 38 15 12 43 16 15 62 1 3 32 54 44 10 46 27 62 40 55 
37 22 50 20 22 11 4 53 8 14 42 44 11 20 17 25 21 51 6 18 57 55 37 44 37 1 16 39 3 61 15 28 56 21 16 40 10 29 54 3 57 61 60 12 1 62 47 24 16 16 54 63 48 28 57 53 41 35 60 54 55 46 30 62 31 23 51 4 10 10 55 42 22 19 61 5 10 44 29 52 28 0 35 59 18 19 34 43 28 31 20 8 7 46 9 32 4 41 58 38 0 9 11 15 56 30 34 63 4 35 9 50 4 41 61 52 60 6 5 42 57 47 36 30 54 44 15 19 
10 27 50 51 26 0 20 63 42 9 21 49 58 28 0 2 32 20 39 46 46 56 61 38 52 0 9 28 45 31 33 25 18 14 53 58 2 12 6 29 50 15 10 26 37 0 37 12 22 17 48 40 24 3 11 10 15 29 41 9 43 56 35 61 62 18 46 3 44 38 16 19 1 49 48 4 23 63 24 35 49 9 60 38 16 58 43 16 39 54 5 43 40 55 62 0 56 28 38 26 18 0 53 31 17 6 0 57 11 47 21 38 21 6 18 50 42 40 18 14 53 59 41 61 60 3 7 56 
20 20 33 2 17 9 55 56 15 31 1 46 52 28 4 44 39 61 50 50 52 9 6 44 21 60 11 25 9 51 29 35 4 12 37 53 32 24 25 29 26 32 2 9 51 48 53 44 42 23 7 36 5 60 29 61 1 41 21 56 33 27 53 22 13 59 60 63 41 63 21 53 60 37 33 56 1 21 5 42 35 33 40 45 45 56 50 61 32 19 58 23 4 56 34 58 48 12 10 10 43 29 7 39 31 42 43 28 63 45 60 0 20 24 47 36 14 62 21 13 33 33 2 25 7 39 47 0 
5 21 31 14 61 62 56 58 37 47 38 4 0 63 30 34 0 38 39 61 32 26 51 47 9 3 5 34 46 57 37 28 14 60 20 51 52 53 11 26 36 51 55 39 42 52 19 3 54 20 3 48 41 21 62 6 0 55 8 41 53 50 55 29 38 22 21 51 35 22 43 14 54 10 6 47 26 32 60 30 22 37 35 59 11 47 27 4 5 45 8 61 7 16 54 53 53 63 50 35 54 37 29 29 13 32 34 15 30 15 57 23 22 28 25 55 38 31 57 18 60 63 7 60 52 54 63 20 
63 12 11 57 17 52 0 1 24 33 39 1 16 7 63 37 56 3 31 30 11 51 25 30 10 60 53 17 23 24 57 3 10 1 11 25 49 44 40 6 55 60 14 36 59 52 43 33 53 35 11 40 21 29 17 46 40 2 45 23 25 43 61 8 47 41 8 62 9 34 11 20 16 1 38 63 61 21 56 59 8 7 51 19 25 29 59 1 14 31 25 35 46 15 48 10 55 37 39 52 19 37 12 17 1 24 28 48 47 62 63 1 63 30 9 1 42 38 49 6 6 31 15 47 17 22 51 28 
63 28 0 40 53 21 43 53 0 39 1 42 0 9 18 15 59 43 13 13 36 16 10 9 5 24 25 56 57 39 7 37 62 48 55 25 14 60 0 38 39 53 0 31 4 55 26 17 8 44 30 55 21 35 5 13 45 54 59 58 59 3 61 11 48 62 40 13 4 2 28 4 5 50 32 58 46 29 16 61 16 25 59 19 55 56 43 49 24 43 21 52 7 44 24 2 48 30 33 57 21 63 51 61 29 19 0 62 47 16 60 44 33 61 8 11 40 3 6 61 4 4 13 60 30 26 58 17 
23 36 21 14 32 15 37 43 63 36 16 3 37 9 24 14 62 25 61 0 15 61 50 12 32 57 48 22 62 9 18 22 5 48 31 3 60 11 36 32 59 28 22 63 44 16 6 55 21 4 11 31 42 37 59 40 59 31 36 53 46 50 34 20 23 17 2 2 7 11 3 49 35 45 4 39 15 17 60 33 55 51 49 9 63 30 38 34 32 39 28 36 45 59 53 25 43 18 51 55 54 1 14 60 52 31 52 12 0 55 54 38 34 0 40 56 1 4 32 19 56 53 36 11 50 5 33 36 
23 28 48 43 5 51 39 12 52 15 39 26 40 43 31 10 19 7 19 4 58 17 55 40 2 2 37 14 42 29 0 45 59 7 13 54 21 57 31 61 35 11 19 11 23 18 26 13 5 47 33 21 22 53 34 58 28 51 53 6 29 23 42 9 20 5 8 46 2 60 22 17 19 23 61 4 17 10 7 44 50 57 53 15 19 30 15 11 57 21 41 9 17 13 10 33 16 60 3 54 60 21 36 15 23 23 43 4 21 50 30 24 19 47 11 15 47 58 14 35 49 58 0 10 27 1 17 42 
25 19 13 59 16 20 20 17 60 41 2 45 24 42 43 26 15 39 41 9 21 47 13 48 50 26 24 2 1 24 60 4 16 49 9 11 29 50 32 62 59 25 1 2 56 48 26 60 7 28 6 5 33 46 42 20 24 60 61 55 55 34 7 60 28 39 48 3 46 36 27 32 39 25 34 53 45 10 18 28 52 15 42 37 35 51 0 57 31 60 8 39 48 62 15 21 43 63 4 62 10 25 40 29 58 39 27 25 2 23 7 33 10 27 38 28 58 11 13 60 1 36 12 25 11 1 36 24 
24 60 59 41 33 36 20 8 16 63 37 36 63 60 6 14 27 6 50 5 43 5 18 32 21 41 59 30 50 51 43 60 60 35 9 17 37 16 55 54 8 27 22 15 63 32 23 6 11 42 11 61 2 1 53 20 34 4 13 22 48 0 49 13 19 62 14 34 59 8 9 7 11 32 33 17 20 26 41 29 9 6 55 3 35 23 44 22 35 63 44 20 59 46 58 8 44 47 52 57 31 4 4 28 36 29 11 47 43 21 56 53 37 7 53 59 44 11 14 9 38 62 19 16 27 59 23 14 
5 46 18 48 27 39 57 0 9 14 7 32 60 10 2 62 37 28 52 57 5 56 29 32 25 34 40 2 54 30 9 56 6 11 59 31 42 27 26 7 48 52 56 44 37 51 57 38 9 42 27 13 56 22 3 49 57 35 41 13 15 22 35 42 60 12 18 0 29 41 28 32 56 2 52 25 39 25 30 24 53 36 28 20 3 12 30 12 4 16 54 2 3 30 33 33 36 7 12 27 41 11 44 3 1 30 36 37 44 33 1 48 14 9 29 58 47 2 27 58 0 42 48 43 50 12 33 51 
33 7 32 14 61 33 20 7 61 30 6 59 32 62 56 28 34 63 48 56 2 27 6 4 27 11 8 5 37 50 50 39 34 0 5 11 47 1 55 33 33 19 41 61 49 56 28 59 56 43 52 23 20 20 54 22 48 60 35 62 60 13 29 22 36 49 3 31 5 16 3 42 9 19 37 40 51 8 46 44 54 21 38 12 42 11 4 48 35 16 62 4 5 14 54 48 34 55 29 7 43 10 35 27 37 58 47 57 47 61 1 52 29 42 28 15 47 38 33 29 29 33 34 13 63 17 55 1 
8 14 45 18 2 35 42 50 6 19 21 20 36 54 10 55 6 30 8 21 56 25 8 20 57 60 38 55 24 49 43 37 47 52 61 0 3 17 36 44 38 33 24 20 24 40 49 32 7 30 58 48 51 20 56 26 23 48 33 21 23 10 50 26 49 33 50 44 49 22 54 31 33 60 34 17 29 45 10 29 21 63 19 3 36 29 49 52 60 41 32 15 9 15 24 61 20 2 16 32 34 10 30 9 1 10 39 14 24 2 3 60 4 42 63 63 18 13 30 56 48 29 10 53 62 43 63 10 
42 62 3 21 33 15 8 42 2 21 37 16 52 62 12 18 34 52 45 38 5 15 7 36 15 42 1 25 6 51 8 48 19 63 54 0 16 37 32 49 47 32 33 17 27 35 29 21 39 52 15 56 56 53 13 47 22 60 32 8 52 32 42 57 32 47 8 36 25 31 10 10 16 63 46 13 13 28 14 49 43 0 1 32 7 38 63 4 12 17 16 28 21 0 57 48 54 21 7 34 38 37 5 9 39 52 8 20 14 62 29 51 18 14 54 5 17 39 7 44 47 12 34 10 53 12 9 53 
20 63 42 35 14 51 14 6 31 48 52 43 8 32 6 9 19 23 33 12 22 8 57 59 52 59 47 30 45 54 25 45 4 1 51 26 35 10 20 18 2 23 45 16 42 4 20 33 54 20 62 15 60 33 34 21 48 27 13 15 58 23 29 63 19 7 54 29 40 12 54 31 58 20 28 45 3 42 44 9 35 8 28 43 6 14 41 22 47 35 61 52 35 33 49 23 33 7 0 53 11 3 24 36 9 4 28 9 1 41 16 60 43 43 6 11 56 30 49 10 18 18 10 5 9 53 55 34 
13 21 13 15 43 4 40 55 44 52 5 17 52 55 30 1 35 19 29 54 38 52 17 34 22 28 16 3 4 49 4 30 37 48 51 8 1 59 55 36 5 36 20 5 33 35 1 37 22 6 34 18 22 31 36 33 22 36 57 2 10 38 26 53 22 60 55 58 58 48 20 25 53 23 44 6 21 28 6 21 28 15 40 19 5 24 57 29 0 31 0 50 1 60 42 9 44 24 6 50 49 53 11 3 17 39 10 45 4 42 12 40 41 53 63 53 54 31 5 59 12 14 60 22 24 48 18 14 
54 14 30 59 62 55 20 9 49 38 43 58 49 5 41 38 20 47 42 47 62 6 51 48 8 40 10 50 45 24 5 15 26 58 12 23 60 35 16 48 4 16 8 39 26 0 25 8 6 9 32 22 20 44 40 17 56 17 26 26 52 52 27 59 38 14 54 62 35 1 46 16 60 54 60 26 24 18 26 46 19 20 56 23 19 16 43 52 51 22 44 0 31 32 16 10 24 16 55 57 20 39 59 39 31 11 18 57 63 22 49 8 13 16 29 8 23 45 18 39 41 10 33 26 14 49 13 10 
48 2 55 21 32 30 41 8 4 58 52 8 12 47 8 20 18 30 33 43 43 9 39 44 32 60 50 50 13 11 0 21 14 11 60 54 14 0 49 6 58 39 16 40 29 59 33 48 17 1 52 7 20 45 60 43 16 50 3 2 10 54 52 62 52 31 14 9 10 8 35 58 11 16 8 59 30 51 23 39 13 61 50 34 28 10 10 11 33 4 32 18 19 0 26 25 5 26 33 8 2 7 57 28 27 4 34 5 36 22 42 9 14 11 28 25 48 63 31 49 43 46 60 53 10 31 34 9 
30 22 2 44 37 21 22 1 45 51 37 63 21 63 38 7 42 45 28 46 53 57 34 14 41 35 18 6 61 24 22 47 9 17 2 29 34 23 32 2 51 63 20 13 44 19 62 32 45 52 44 52 26 43 37 7 9 57 46 52 35 31 46 25 2 16 41 61 34 28 20 17 40 17 58 59 36 14 32 21 31 18 39 36 32 32 55 2 33 12 31 47 5 47 58 61 41 28 11 50 63 52 32 15 62 16 11 60 37 43 23 34 7 50 21 58 10 22 34 35 28 41 6 11 18 61 42 53 
60 30 8 51 30 23 13 45 43 42 35 54 8 19 30 11 17 16 38 2 55 36 56 48 26 1 63 40 28 19 2 32 30 3 0 8 33 19 37 20 57 56 59 40 45 26 43 40 59 49 19 1 26 8 7 4 14 8 29 38 9 6 45 22 28 24 45 50 19 53 3 7 31 54 54 28 54 14 46 55 30 29 38 56 5 18 58 3 6 40 47 6 34 61 37 3 4 20 4 17 14 54 37 39 32 47 34 21 3 30 57 35 61 60 14 55 14 33 55 48 51 15 51 54 56 45 46 10 
35 30 28 46 3 1 18 49 53 25 60 39 44 42 53 15 6 33 55 44 7 8 23 39 48 2 42 11 18 54 35 0 10 17 48 3 15 16 33 45 7 35 61 45 39 46 38 31 56 28 15 47 63 14 21 18 29 42 56 54 7 7 36 41 24 60 7 27 47 52 42 10 15 18 59 36 52 2 53 18 35 45 50 47 42 39 52 22 55 55 56 36 54 32 16 39 54 35 2 61 26 47 6 51 47 26 8 37 46 48 41 14 62 34 39 33 39 40 37 16 9 58 28 32 60 61 59 46 
52 19 30 62 34 22 56 33 9 26 23 44 33 46 29 55 43 52 49 54 48 24 3 63 6 36 62 18 31 18 30 13 29 59 4 9 46 48 33 33 47 23 39 28 25 31 31 35 57 23 29 57 44 46 19 27 0 34 52 2 59 36 13 23 4 62 43 14 49 21 54 9 26 10 44 54 2 21 20 63 15 31 51 30 18 47 29 21 14 23 55 16 15 45 16 48 46 40 41 32 63 48 52 48 44 51 24 2 49 4 21 33 41 8 43 39 24 22 27 42 63 34 27 35 25 0 22 23 
41 8 33 40 4 51 43 36 48 28 39 13 60 36 45 4 44 24 23 52 1 44 63 63 63 35 58 22 16 37 3 18 34 11 30 61 23 0 13 55 18 15 6 18 58 12 32 38 34 23 53 61 26 56 59 7 33 49 1 15 20 30 24 15 38 52 49 39 6 52 24 44 53 29 48 17 46 26 20 20 56 58 3 42 27 41 45 46 39 9 12 12 10 58 42 18 42 44 10 34 54 51 56 32 27 24 26 31 19 12 46 11 9 7 20 7 63 11 40 22 1 30 48 4 53 46 51 23 
53 39 43 24 17 53 5 33 18 25 26 63 38 21 15 20 44 58 21 44 52 37 32 61 3 3 2 36 38 11 58 57 44 22 0 38 19 61 53 16 21 32 3 28 54 55 42 50 3 54 56 9 54 21 43 47 40 56 41 40 18 12 43 26 62 14 60 0 42 51 54 12 27 44 2 27 49 9 44 21 56 1 32 2 37 62 35 35 30 36 32 38 59 56 42 41 22 16 23 14 37 60 47 54 7 31 5 34 58 10 34 4 12 31 37 7 40 31 24 47 47 37 48 28 24 12 44 52 
33 35 53 9 55 15 12 46 46 19 12 29 46 49 17 62 38 20 56 1 25 48 52 34 12 37 36 39 3 41 46 31 32 61 53 55 29 33 61 39 7 1 28 20 18 8 24 3 10 58 5 28 47 42 8 8 38 34 30 56 0 15 48 45 4 30 27 56 25 62 19 51 48 58 43 47 36 19 45 56 19 38 16 7 32 49 35 47 15 2 16 55 57 30 3 47 13 60 9 30 46 24 10 57 11 63 15 63 25 39 60 17 36 44 35 21 31 26 30 55 43 47 14 54 43 20 20 30 
40 24 2 49 27 24 34 27 41 33 19 43 53 14 24 39 23 57 29 40 62 40 51 5 46 14 26 12 24 55 32 27 17 17 33 41 45 1 13 20 32 0 24 28 27 60 47 5 41 5 24 10 62 53 40 51 26 11 26 62 5 37 47 0 59 1 45 46 44 1 62 9 42 27 10 61 61 3 22 42 22 0 21 28 62 22 44 63 54 44 18 40 2 15 58 4 8 4 44 30 29 60 3 0 43 52 17 52 2 27 28 50 33 11 42 32 3 26 61 51 27 60 8 6 0 12 14 14 
40 0 15 39 21 19 53 18 12 58 4 1 35 38 4 18 47 23 56 15 53 32 6 41 36 49 56 16 3 44 37 13 21 14 36 8 47 44 21 39 58 32 62 21 7 50 12 61 5 45 3 4 50 21 49 49 63 28 47 45 55 4 19 32 49 21 9 12 19 17 5 24 55 41 16 36 10 38 55 16 40 25 2 1 57 35 31 7 52 7 37 23 60 3 58 25 52 28 49 41 46 34 21 37 28 1 58 61 50 28 42 1 16 12 41 40 34 6 34 18 42 5 25 60 63 8 1 59 
12 16 62 51 60 31 7 52 16 44 10 11 35 32 26 30 46 39 13 54 62 60 12 22 13 51 36 1 55 61 34 27 23 26 52 44 38 39 52 52 42 27 24 57 48 44 43 5 34 35 11 2 11 13 3 33 21 29 38 12 29 18 8 27 12 29 40 8 3 54 17 12 31 20 19 29 59 5 12 62 61 49 32 45 24 11 25 24 4 38 30 38 23 57 5 46 28 34 1 57 2 12 11 7 22 62 56 31 9 10 12 45 0 21 50 60 49 53 43 30 19 32 61 25 42 48 16 31 
62 4 8 6 32 29 27 17 27 46 8 37 40 8 32 3 58 28 18 47 2 26 59 4 28 46 32 62 13 51 30 22 3 15 12 54 1 58 57 57 27 7 39 38 0 56 54 21 28 54 34 34 40 33 19 4 54 1 9 62 16 1 36 46 61 44 24 42 7 53 50 19 0 49 16 8 17 21 34 4 41 19 33 29 7 63 33 10 19 19 28 42 21 15 26 12 5 54 50 40 26 14 6 12 22 37 16 61 55 55 51 27 6 48 54 62 3 43 54 17 29 29 28 25 47 58 24 23 
49 49 14 16 4 57 56 42 38 26 44 1 55 36 2 14 4 35 18 49 59 36 31 56 52 47 16 52 21 29 50 17 38 51 35 52 56 50 47 50 30 3 6 14 50 10 36 35 51 55 47 47 31 13 47 11 16 11 29 7 11 47 6 60 32 20 59 18 47 44 61 52 53 48 6 0 7 47 35 3 12 9 43 58 27 6 48 14 41 15 1 62 4 39 10 41 38 6 56 1 8 23 37 19 56 0 21 27 42 27 14 38 26 36 13 20 52 57 11 35 37 3 51 15 6 18 43 24 
38 45 38 34 61 11 11 37 4 31 12 56 3 47 32 14 30 6 2 41 3 62 9 58 16 53 59 31 40 3 2 7 14 26 46 51 45 58 27 26 37 15 22 5 48 30 30 46 38 37 28 47 11 24 26 28 60 49 63 21 20 0 11 27 18 52 21 51 16 55 33 51 33 18 59 21 22 8 15 48 43 39 20 24 48 53 42 46 26 61 27 50 0 5 30 14 9 38 38 41 12 1 56 5 2 23 25 22 54 49 51 27 10 4 34 35 3 28 46 57 36 56 46 25 1 9 50 57 
35 45 18 43 53 13 30 14 9 1 45 12 19 16 47 44 58 8 29 4 14 55 40 7 8 13 58 26 14 5 12 16 12 21 38 57 50 53 49 1 11 1 3 44 55 54 6 37 2 48 11 11 49 3 8 16 42 54 52 25 6 4 36 29 32 63 59 13 44 26 62 25 48 18 37 27 45 50 62 37 56 15 19 45 63 0 39 34 38 55 58 41 16 47 24 33 62 15 0 41 42 54 25 8 31 5 51 35 6 52 13 4 42 36 35 41 55 50 28 53 29 50 48 49 23 26 6 20 
49 26 21 16 44 31 54 12 48 25 12 30 63 7 32 14 24 45 1 5 46 31 15 32 18 52 18 40 19 60 60 19 19 45 54 4 3 33 23 62 39 63 2 50 17 1 20 22 2 59 44 34 32 51 1 4 16 25 49 42 58 28 28 47 4 20 41 4 47 27 52 26 54 56 16 56 4 13 59 23 42 26 13 43 21 8 18 22 36 23 62 54 3 11 10 48 59 14 60 51 28 2 43 40 12 55 43 17 63 31 49 59 1 2 48 45 38 58 26 5 15 41 46 27 47 16 26 6 
34 1 10 31 15 39 31 6 28 2 57 19 34 37 9 25 56 15 43 52 28 55 5 29 27 54 38 44 12 32 51 32 13 20 56 42 45 22 3 37 4 12 30 37 9 49 23 43 63 8 22 47 49 52 14 13 37 27 9 57 27 41 0 6 63 59 21 24 16 21 43 44 52 10 52 43 0 36 39 17 18 50 8 39 49 42 11 3 44 1 28 60 62 9 44 10 8 24 39 4 9 5 1 52 6 58 28 27 1 12 35 25 21 23 36 53 23 11 31 13 1 2 62 34 51 8 10 0 
62 14 50 9 59 9 2 33 2 35 47 20 59 12 56 0 3 42 28 32 4 47 19 43 32 49 36 5 0 3 52 22 37 22 23 42 36 6 39 0 21 57 18 12 3 59 10 25 8 37 42 6 1 30 36 60 38 5 44 63 3 42 40 59 7 5 11 45 58 28 24 26 11 6 41 28 47 24 18 34 18 41 11 4 4 46 13 23 49 12 37 13 60 39 52 38 45 14 10 62 18 18 38 56 10 47 33 21 9 26 31 4 59 51 58 49 0 28 50 41 24 46 14 0 11 25 1 42 
42 23 47 60 51 10 34 44 56 48 6 62 23 59 35 61 29 23 20 33 14 17 47 46 12 61 17 50 48 50 26 2 8 8 11 17 33 9 42 17 8 20 56 5 51 30 20 55 0 22 26 25 56 23 44 53 9 60 22 19 46 15 23 6 0 48 30 63 22 43 63 33 6 25 59 33 4 41 54 11 19 28 57 57 50 2 14 15 45 32 36 58 48 1 25 5 55 1 39 55 32 6 28 32 42 41 43 28 42 19 9 42 45 26 33 49 6 18 35 37 39 24 53 36 18 0 3 23 
42 58 50 8 48 51 25 51 51 19 6 57 54 61 33 34 35 33 11 62 28 50 17 26 29 17 37 30 49 48 22 9 23 52 32 9 22 40 56 18 12 14 32 26 24 1 57 40 26 48 5 20 43 53 5 21 6 25 2 61 9 35 39 33 7 38 61 56 9 30 32 6 61 2 21 60 42 47 3 52 62 3 52 63 25 49 35 45 29 40 27 10 50 23 25 63 40 20 25 40 49 32 59 11 56 45 39 38 5 49 11 52 36 7 38 15 29 27 54 7 9 38 57 18 15 37 9 52 
55 55 33 19 10 31 42 23 11 47 30 11 3 15 55 4 49 20 19 39 19 50 17 44 11 45 30 17 50 50 18 62 54 54 3 42 1 9 37 34 32 0 10 62 37 56 55 9 5 12 58 43 46 22 27 51 51 20 46 14 60 11 50 5 45 25 55 21 39 2 48 48 4 44 22 59 7 49 54 31 43 43 57 13 25 1 13 40 38 58 51 11 53 49 29 48 25 7 44 45 19 41 45 2 21 19 22 59 44 62 38 49 40 17 49 46 3 36 15 59 2 27 9 62 61 7 33 12 
18 44 24 54 36 13 49 14 37 50 12 36 62 28 10 39 3 10 40 53 9 32 32 47 40 32 5 49 28 58 9 26 10 22 38 59 12 31 55 14 57 26 10 20 10 7 31 34 15 62 58 49 57 36 56 18 18 26 46 44 7 20 1 45 12 57 57 42 53 37 37 61 36 48 4 50 45 3 62 38 24 1 50 11 38 47 58 47 14 14 42 19 47 60 17 44 61 12 43 62 17 60 32 28 46 53 19 46 12 45 4 25 60 29 37 50 7 41 23 2 17 44 3 47 0 30 42 13 
1 38 25 62 43 21 54 25 61 48 7 36 19 58 56 41 29 31 48 37 41 39 18 36 55 25 50 10 6 51 34 34 54 33 10 18 44 58 56 52 39 8 24 54 24 54 47 11 1 24 61 8 37 44 17 13 21 39 57 3 45 7 47 58 28 49 11 55 28 47 38 14 57 8 5 22 2 52 62 17 14 43 30 18 63 10 35 51 37 44 46 54 5 48 48 42 4 26 48 44 57 55 10 4 4 22 12 23 48 0 37 26 6 44 42 13 27 24 14 11 60 61 19 30 43 51 12 11 
2 18 45 22 0 22 41 0 14 19 58 37 29 49 40 19 33 8 25 54 48 60 34 5 63 44 52 2 24 21 7 49 16 50 39 15 4 10 52 63 19 31 1 5 31 33 1 31 1 4 49 16 2 42 1 46 10 11 58 62 41 5 42 38 47 25 27 45 6 29 7 0 49 31 37 55 19 29 4 40 7 5 19 19 63 52 36 3 54 7 37 25 49 44 20 20 46 37 3 56 19 48 40 27 60 32 57 42 54 37 32 11 48 43 40 47 57 2 2 13 26 10 61 47 23 36 14 15 
52 42 46 0 6 29 41 40 54 53 11 56 58 27 53 61 19 51 28 14 2 27 38 14 44 17 3 21 36 56 29 3 49 18 29 51 20 13 12 52 44 55 12 8 13 11 53 56 41 45 16 20 26 33 45 4 3 19 11 17 58 24 61 41 63 38 9 4 61 21 11 57 28 56 18 49 27 45 60 8 37 26 22 31 21 8 29 37 26 34 16 20 22 7 24 31 10 8 58 12 32 26 15 25 32 31 39 4 37 14 13 39 42 51 2 16 44 46 1 18 59 53 39 43 39 38 13 60 
49 45 23 54 57 50 26 0 21 50 30 59 31 3 43 10 1 40 31 56 10 57 17 10 61 29 6 27 21 3 38 12 36 50 35 53 12 60 56 27 3 46 27 10 20 38 38 41 63 42 21 54 59 39 25 40 32 37 26 53 35 17 52 34 12 45 1 32 21 38 38 31 30 15 32 53 29 16 53 35 3 47 50 16 23 36 53 34 44 52 59 63 50 12 0 63 29 47 56 3 50 43 20 54 23 53 42 48 61 44 18 48 54 58 43 46 22 58 14 23 2 12 5 22 53 9 58 17 
55 24 27 18 45 24 33 22 53 20 15 19 56 8 20 22 5 54 17 15 44 49 12 62 56 59 19 61 45 59 16 43 10 19 30 63 48 16 45 11 21 13 2 2 47 0 5 42 60 5 1 45 1 50 54 23 57 3 62 61 46 29 53 62 52 12 62 48 30 54 27 38 47 21 33 7 38 51 25 29 17 10 40 18 1 15 41 10 42 13 19 51 39 36 49 44 6 18 49 38 23 54 19 42 26 59 5 12 55 39 12 37 5 3 56 42 16 25 11 0 33 19 60 56 61 23 17 34 
4 26 15 43 16 35 60 59 28 12 29 52 0 11 49 58 43 51 22 33 28 1 17 13 63 15 30 41 55 17 2 6 10 27 34 33 33 58 26 56 27 19 1 15 34 30 45 2 24 20 22 22 28 60 24 5 60 27 27 48 41 5 16 3 35 32 9 5 23 59 48 49 18 20 17 32 4 21 2 63 16 53 55 13 31 8 32 48 30 53 61 14 17 4 35 16 19 29 46 21 11 6 29 14 62 0 6 17 31 5 11 33 58 0 13 5 58 48 13 28 19 50 42 60 4 28 25 58 
15 58 31 55 20 59 33 53 27 20 18 24 31 43 11 0 3 13 22 31 28 45 30 36 38 59 45 40 42 49 8 58 28 8 48 3 7 41 0 49 51 49 1 38 41 54 10 56 11 38 20 22 24 11 61 2 60 13 29 34 26 54 37 16 58 22 20 6 44 56 31 47 29 7 49 50 18 48 24 49 9 23 7 32 20 8 38 16 16 43 63 7 4 58 53 50 18 38 36 57 4 31 36 23 62 33 32 14 44 34 6 6 4 29 4 25 7 24 14 6 5 26 22 48 50 22 14 62 
37 5 26 11 7 26 10 61 0 25 39 33 42 24 10 19 60 31 3 47 3 2 19 35 18 18 58 56 11 23 42 49 21 46 21 37 41 48 14 44 2 16 22 1 53 26 32 3 23 54 30 12 44 33 24 31 25 16 2 52 12 27 36 35 5 51 33 43 26 40 36 24 48 3 57 32 57 12 24 48 39 18 59 17 10 9 56 28 31 46 10 39 25 5 26 61 43 3 30 41 38 31 43 53 24 25 37 19 42 10 17 9 1 24 38 40 33 39 42 19 23 2 36 12 39 36 52 55 
29 8 42 3 26 2 43 26 27 52 43 34 49 61 15 24 35 44 31 31 9 26 6 3 39 4 59 25 49 10 8 15 13 11 42 39 15 27 26 21 43 25 10 37 48 0 24 7 11 12 58 57 12 26 59 29 13 48 61 34 9 17 19 57 6 16 23 60 23 20 54 10 36 11 62 11 34 15 8 0 62 31 23 56 33 26 59 57 46 55 60 25 46 10 20 2 45 62 28 37 0 19 45 53 19 14 23 27 51 25 7 52 53 30 7 6 42 19 62 7 12 24 1 4 48 56 54 34 
52 30 26 20 47 8 44 45 41 46 33 2 28 3 53 42 2 33 1 33 32 59 15 18 36 7 60 41 6 62 47 15 33 53 56 25 2 16 33 17 17 58 17 43 4 49 45 44 19 0 40 11 47 42 22 5 3 8 42 48 14 63 33 16 60 52 10 31 15 3 24 45 28 60 2 50 32 25 25 2 43 11 26 44 10 24 20 36 18 14 57 4 51 55 37 14 4 54 2 59 37 20 61 57 30 42 4 18 25 60 9 43 42 1 55 29 46 5 22 20 26 15 7 15 27 44 14 60 
49 20 3 59 48 46 62 4 42 28 55 22 7 61 61 55 5 44 5 27 62 50 61 50 9 56 13 25 44 34 48 5 37 57 46 23 29 60 23 34 29 1 14 32 9 20 53 55 11 40 48 63 30 51 13 28 26 50 34 46 15 51 63 48 46 41 14 32 34 51 40 13 39 38 19 45 36 39 2 39 33 0 28 41 3 2 0 8 19 9 6 30 44 0 18 24 49 55 60 52 53 11 51 29 26 26 14 17 40 21 24 48 21 49 36 24 40 42 48 27 13 48 53 11 5 6 25 41 
25 9 61 31 32 61 46 4 11 22 56 56 27 44 36 32 61 19 37 53 45 23 28 36 36 50 23 27 57 14 3 46 14 35 3 49 62 2 58 38 9 23 12 47 53 1 35 18 62 18 24 5 20 37 18 42 43 51 17 16 23 39 26 16 43 24 42 24 18 47 11 24 6 51 11 15 27 25 57 48 23 10 0 2 56 5 49 61 48 23 45 40 14 61 7 18 35 47 8 29 5 47 18 59 58 49 46 14 4 20 46 63 20 49 27 20 21 18 61 5 0 21 0 11 55 52 17 17 
36 55 39 60 9 14 51 49 37 26 16 27 55 46 27 20 28 37 41 23 57 18 36 28 58 26 36 27 59 7 13 0 27 33 13 33 0 14 36 60 39 47 62 49 27 24 38 10 33 29 23 22 19 45 46 0 62 16 11 56 0 15 22 28 8 44 16 41 1 29 13 54 53 10 39 4 52 31 38 12 63 13 3 9 18 59 19 25 43 42 0 48 9 62 32 10 42 24 10 46 6 50 4 31 35 44 22 61 37 1 60 46 49 1 31 11 0 13 45 19 12 2 36 11 47 42 18 50 
1 46 48 3 1 6 22 39 63 13 5 16 9 23 3 46 23 3 8 33 36 34 21 8 41 28 14 30 46 12 27 46 31 50 60 8 34 48 27 1 46 27 3 52 49 4 28 10 12 26 63 21 10 47 38 44 5 19 28 29 46 61 36 16 9 39 33 50 26 50 47 11 56 30 62 31 23 57 39 16 26 42 58 24 57 18 27 32 8 45 25 43 24 27 62 15 37 52 16 46 43 3 50 48 35 6 14 35 53 9 44 35 53 10 45 35 56 33 28 29 7 18 58 56 38 54 40 40 
47 51 61 63 38 51 34 1 0 22 45 57 4 46 55 51 63 27 2 41 57 37 4 18 63 51 56 61 26 24 0 2 50 36 44 13 44 3 26 37 34 26 30 23 38 19 15 36 52 46 40 24 34 44 35 1 59 44 43 19 25 17 11 2 37 37 34 11 31 14 5 31 40 55 33 18 6 31 55 48 62 25 58 4 18 41 56 25 56 9 49 27 16 14 32 8 6 48 34 32 52 43 29 21 62 46 44 22 28 28 12 40 30 1 25 6 43 3 27 25 51 45 1 15 30 32 19 36 
13 3 30 4 14 32 4 32 29 57 57 52 39 52 56 58 47 30 5 49 48 5 42 25 34 2 44 59 45 35 54 29 29 45 21 10 36 25 51 54 61 33 27 6 25 49 6 32 44 32 23 28 1 58 48 40 41 31 36 35 31 61 50 63 1 24 57 27 41 63 48 19 54 18 32 3 52 18 14 54 41 43 55 33 19 21 60 46 45 42 20 9 21 31 63 51 0 40 39 0 32 12 1 58 18 62 38 40 18 3 35 39 34 31 27 47 40 10 61 41 2 57 23 56 15 12 31 63 
59 21 37 7 19 48 28 16 7 16 23 33 1 12 10 5 18 7 25 4 28 21 53 45 19 38 47 5 28 12 33 1 42 9 1 58 50 40 15 57 50 2 38 44 61 34 27 51 8 44 18 43 3 56 60 30 32 37 38 22 29 44 42 35 54 59 30 61 18 42 19 26 38 42 0 41 11 10 58 43 31 6 39 25 41 43 13 56 13 47 47 50 19 18 37 39 56 62 13 29 8 17 15 26 0 58 63 10 4 14 52 44 29 40 45 21 24 4 49 26 9 38 18 5 54 8 13 61 
55 15 32 59 53 11 18 2 4 37 36 27 59 33 63 35 5 62 10 52 33 17 10 5 12 46 51 19 21 52 14 7 44 27 38 20 52 54 63 19 33 58 35 51 34 61 6 6 7 18 25 16 9 62 5 40 43 1 8 22 15 23 51 30 4 61 52 29 49 38 19 11 0 35 43 31 57 17 35 41 25 63 22 14 53 47 50 39 32 43 63 39 60 39 29 11 9 2 12 3 12 52 39 50 17 56 25 26 33 43 3 32 6 3 48 22 30 21 59 4 52 28 30 5 36 7 24 36 
59 36 8 53 48 24 31 21 54 32 19 45 17 28 41 48 29 8 29 23 17 36 31 52 55 40 13 15 59 7 29 25 27 40 41 40 1 26 42 6 27 56 5 7 31 29 35 39 2 63 5 62 17 9 18 53 22 43 27 61 36 45 0 29 33 49 54 11 45 58 2 20 4 15 61 26 0 31 59 13 34 18 57 6 27 51 50 54 18 13 34 33 24 33 22 42 48 52 40 11 4 8 53 51 3 6 25 52 39 37 34 35 60 11 48 53 44 53 5 15 4 44 19 0 46 34 61 37 
19 33 59 60 39 20 22 54 55 61 23 23 39 48 37 37 21 14 38 52 58 60 28 31 55 23 54 31 19 30 48 53 51 12 15 36 9 33 46 31 13 14 4 19 59 35 46 32 33 27 6 32 6 52 18 49 24 16 35 23 5 31 6 4 4 38 43 61 38 52 43 11 49 37 42 23 60 18 58 18 2 52 17 7 28 38 3 56 49 50 44 26 10 48 36 50 17 19 41 12 32 16 30 2 3 53 2 23 4 40 12 62 34 14 56 15 51 11 4 34 45 9 62 5 48 28 32 9 
61 13 28 27 56 17 49 17 55 6 60 57 59 44 23 37 5 12 55 40 44 37 30 13 23 25 61 12 59 32 20 55 16 32 37 2 15 50 1 20 52 13 51 54 25 56 32 45 58 49 36 16 13 62 1 9 3 40 8 48 30 5 36 20 24 45 28 13 36 0 62 6 51 4 44 20 23 21 4 47 19 52 4 10 40 6 44 57 61 57 28 32 59 41 19 50 25 6 30 19 52 19 11 60 60 18 50 48 37 21 41 53 35 0 36 61 41 22 61 10 45 6 30 9 17 41 38 3 
52 16 40 31 48 53 24 27 25 14 16 20 45 1 6 6 45 2 20 22 8 34 49 41 52 39 22 26 55 57 19 62 6 51 0 52 44 37 42 6 6 27 60 36 38 22 27 18 50 32 58 58 49 38 57 7 27 47 57 23 11 46 31 25 52 9 53 6 62 58 26 11 30 39 7 60 27 28 58 47 33 54 51 7 10 39 1 5 9 41 37 51 11 32 43 27 17 35 28 55 28 19 37 39 63 12 63 39 11 33 7 42 0 25 27 28 57 25 37 49 9 10 20 1 56 39 35 35 
51 15 19 45 22 55 21 44 58 16 56 58 32 5 57 13 11 35 1 62 32 26 28 57 60 25 30 36 14 8 32 56 30 3 34 14 63 61 42 61 56 58 52 43 17 29 59 39 19 9 19 4 6 30 58 0 1 6 54 18 13 44 23 21 29 22 63 63 40 13 43 60 58 6 31 63 28 60 38 62 41 49 44 43 1 33 26 21 63 35 43 60 43 61 41 8 59 54 7 41 27 60 32 37 38 22 31 50 36 50 8 15 2 28 0 62 29 53 28 58 36 25 47 11 16 43 44 28 
54 46 36 2 39 44 50 45 20 17 36 3 8 14 32 34 39 24 54 30 34 60 18 60 19 57 36 6 9 14 55 47 43 18 18 38 39 30 22 43 46 37 63 0 22 33 45 1 39 35 58 11 47 32 53 51 42 58 20 17 8 16 59 3 39 37 30 38 29 7 58 47 49 20 39 58 26 51 60 17 12 57 45 30 25 7 40 50 38 30 30 30 51 7 6 28 51 9 24 42 55 0 33 18 29 52 56 16 35 10 28 36 51 23 45 62 6 13 29 63 13 49 32 54 21 23 32 2 
39 53 33 61 50 29 29 12 61 45 59 31 25 1 1 26 11 20 45 13 41 20 28 43 4 27 16 11 2 21 46 31 8 39 59 37 20 51 48 31 25 29 16 18 11 56 45 25 1 12 61 8 61 11 62 5 42 47 30 41 12 35 15 50 29 58 23 26 61 48 34 25 54 15 29 39 30 29 44 10 6 1 35 44 27 0 24 27 7 54 62 47 29 22 8 28 50 59 54 31 40 19 16 30 47 23 59 25 10 56 49 52 20 5 50 11 10 51 40 44 31 31 56 5 35 49 59 15 
5 11 20 20 25 38 51 5 56 63 17 46 45 13 51 43 27 51 49 4 55 9 14 37 16 7 51 11 23 37 36 53 4 21 27 8 55 49 19 23 47 58 52 28 8 27 16 46 56 54 53 33 30 25 56 10 16 56 4 52 23 48 39 51 9 3 34 30 8 28 6 47 25 26 3 27 43 8 6 28 62 50 62 0 16 60 63 45 40 31 48 8 63 30 5 27 60 35 36 6 22 6 34 56 32 41 43 33 25 31 60 2 18 28 8 11 45 27 58 10 6 29 58 62 10 37 44 37 
63 21 8 0 48 54 52 39 12 52 46 49 21 16 62 19 2 48 17 31 56 44 22 60 2 60 38 45 4 24 52 32 0 27 40 51 45 9 9 3 63 30 44 4 57 11 52 25 51 24 41 37 55 1 10 6 30 22 53 8 36 3 8 51 30 41 43 60 53 1 46 8 6 25 58 20 0 6 62 52 55 24 47 18 49 5 29 48 57 13 27 53 38 28 34 6 52 46 3 44 15 46 54 19 52 23 42 51 27 28 45 25 33 12 32 5 16 47 34 54 30 44 48 44 63 58 3 28 
59 62 48 47 23 25 7 58 27 19 29 16 53 21 61 5 56 7 0 18 24 38 30 57 40 49 56 9 55 30 59 13 50 0 42 36 24 0 42 53 28 20 53 25 50 21 60 2 54 18 8 22 53 23 12 44 7 14 42 47 3 33 21 21 38 49 55 13 47 57 62 27 2 55 36 9 13 25 26 48 17 13 47 49 60 25 24 46 34 55 28 8 11 29 54 44 44 25 62 31 20 5 6 26 5 1 14 62 1 51 23 37 40 32 42 30 50 48 51 31 34 30 13 34 9 55 17 11 
0 34 46 46 47 7 2 42 31 43 0 9 26 61 22 51 0 21 34 60 6 10 46 22 24 33 30 48 34 26 51 25 16 56 34 32 18 37 37 45 41 58 24 47 28 19 11 35 13 50 63 15 1 9 31 59 46 60 7 38 46 55 23 61 39 27 24 52 61 16 61 2 9 60 0 44 33 9 4 0 3 9 41 27 31 14 43 16 59 40 47 54 43 33 14 34 6 49 51 58 9 19 5 15 58 3 18 4 2 36 38 14 8 11 15 22 58 15 2 32 11 45 19 8 50 28 8 19 
30 46 10 23 53 50 55 25 5 63 37 37 32 54 39 42 17 59 60 44 7 18 17 33 41 36 0 43 60 50 28 58 33 5 63 58 34 24 42 6 37 50 53 12 52 1 47 31 56 13 1 50 48 56 38 46 0 12 25 33 21 51 51 39 17 3 21 36 24 54 1 27 51 58 58 10 11 21 32 51 48 32 51 3 2 23 35 4 1 38 56 4 37 56 54 52 13 31 42 51 33 7 37 60 47 31 20 61 53 33 40 40 27 19 43 40 21 35 22 61 35 44 6 51 31 0 28 33 
3 58 55 0 9 42 15 23 14 6 12 18 27 47 8 22 26 38 60 38 59 27 18 14 57 21 30 4 12 19 48 61 25 27 21 30 37 42 39 17 23 40 42 58 63 37 12 43 4 34 59 4 63 51 34 17 43 35 1 32 31 13 62 15 23 11 21 9 37 12 36 34 17 53 57 24 56 44 16 5 60 31 10 27 14 31 15 57 19 12 26 5 51 40 45 7 10 43 44 36 42 58 3 24 14 15 41 38 18 24 17 48 61 20 24 6 11 2 49 35 1 50 21 5 12 15 45 21 
35 61 49 53 31 13 37 2 31 27 48 28 12 12 60 37 1 14 46 50 50 55 32 18 29 5 8 49 62 62 49 35 15 5 25 9 2 35 59 17 39 13 54 46 59 20 14 2 2 4 9 51 24 19 17 35 40 31 61 36 33 6 41 23 15 61 3 48 57 59 28 0 39 22 62 5 28 1 9 24 4 55 51 1 58 48 47 62 0 9 57 49 27 2 8 4 56 30 55 13 6 16 55 57 48 14 2 49 0 54 12 18 10 44 56 0 52 34 18 8 49 36 10 2 41 3 2 53 
49 43 28 23 34 54 15 15 38 35 0 33 27 19 36 28 45 61 0 55 51 22 27 12 57 22 60 6 4 11 37 32 45 29 38 12 23 31 29 29 11 59 41 51 46 30 45 4 15 29 60 22 10 45 33 10 52 37 61 32 61 14 9 45 27 33 12 48 21 4 40 43 59 40 35 7 42 3 35 58 39 51 11 42 27 45 29 5 10 60 52 1 29 13 58 2 61 13 18 32 50 53 13 55 50 4 21 59 56 32 44 6 38 41 41 28 30 31 34 2 20 0 29 52 25 24 16 6 
11 11 28 32 42 10 37 54 58 34 31 20 44 50 26 9 8 58 38 15 18 38 32 39 7 0 48 52 12 58 50 6 34 46 18 54 38 31 2 43 38 41 16 16 30 22 15 23 52 7 49 43 42 57 22 61 39 26 15 0 28 6 18 58 34 0 24 43 22 24 49 59 1 0 55 4 35 35 52 63 21 12 6 56 30 56 13 14 20 57 0 40 41 44 9 34 16 60 6 43 6 30 14 20 22 51 50 47 40 57 8 57 53 29 5 16 4 37 40 43 14 3 3 20 37 59 50 2 
21 50 42 54 57 10 56 4 52 9 44 37 33 22 20 55 5 44 63 22 31 42 50 58 37 16 50 33 6 5 37 60 20 53 31 5 15 36 31 20 14 32 38 36 6 1 13 10 62 32 48 47 20 15 2 45 16 17 24 27 8 0 61 11 10 42 53 54 58 32 27 0 25 20 9 22 56 39 43 22 48 16 42 22 34 10 51 16 55 10 46 40 1 28 25 49 51 48 40 55 54 38 56 39 7 61 2 60 8 19 50 33 58 20 28 0 23 62 22 7 40 39 32 59 39 56 6 63 
33 18 49 28 9 57 20 55 62 3 4 60 22 34 4 3 33 56 14 56 30 61 0 26 61 39 18 60 1 15 51 61 0 27 62 5 49 60 20 7 29 10 38 45 7 27 8 30 55 10 31 40 34 40 3 48 45 25 23 63 42 63 15 31 48 43 8 13 3 43 63 42 25 32 41 55 20 7 30 12 47 31 6 7 46 51 2 54 18 57 54 60 27 28 42 9 51 4 61 19 60 54 21 41 21 17 59 51 39 44 50 57 32 32 46 19 24 5 25 31 49 56 27 21 41 59 61 60 
30 10 5 50 62 37 11 51 20 44 47 59 31 47 30 11 55 35 14 49 33 14 33 8 10 45 9 50 44 35 0 15 49 14 22 39 9 50 13 17 34 2 23 47 4 12 28 62 14 15 48 58 52 40 47 1 1 2 49 31 38 44 8 24 1 28 37 52 37 15 17 20 52 47 7 45 6 3 27 11 51 63 7 10 7 8 42 8 52 18 50 16 22 54 16 61 0 43 50 12 31 5 15 40 45 17 54 24 56 44 42 10 8 6 3 42 6 58 51 57 39 48 39 23 40 16 53 51 
7 22 17 27 44 1 40 13 31 40 2 63 13 9 48 5 60 62 7 22 18 0 59 21 0 2 61 42 0 46 56 59 61 14 51 50 8 23 58 49 24 23 17 38 7 18 56 49 10 23 14 5 48 45 30 48 5 19 29 33 42 19 61 9 2 56 18 60 25 63 11 47 4 51 1 5 28 31 22 8 23 38 36 36 38 42 10 31 25 36 8 5 9 14 0 30 6 19 63 43 9 27 25 61 40 19 46 53 15 20 29 16 20 52 59 50 38 37 30 21 41 17 5 23 5 41 63 44 
30 28 56 59 32 47 54 42 41 57 30 60 45 48 15 10 57 41 7 22 20 29 41 27 46 29 47 4 25 25 1 34 51 11 23 28 6 8 18 30 4 18 27 21 32 14 0 40 21 53 63 29 26 51 2 26 55 54 12 1 61 31 0 43 59 25 8 63 41 43 63 27 6 38 4 15 36 59 55 36 46 17 62 38 54 12 23 21 44 0 5 30 25 7 0 49 52 1 21 12 15 6 32 43 53 59 48 61 35 41 49 39 10 2 34 24 8 59 46 18 35 8 53 25 41 34 18 39 
23 33 4 54 22 18 49 36 54 60 4 12 37 17 41 58 5 62 13 61 0 13 29 27 2 56 63 23 52 45 32 1 22 40 12 7 46 13 5 42 61 53 32 36 62 2 60 11 25 45 53 30 7 45 44 39 49 3 5 44 11 55 28 39 27 22 58 63 39 54 26 36 27 12 53 8 1 34 33 10 9 30 22 40 39 42 60 4 10 37 27 59 36 11 62 26 51 28 48 59 16 33 4 47 24 31 27 9 25 17 20 25 1 11 15 37 3 58 55 49 22 59 46 21 20 18 21 3 
44 23 20 18 0 7 42 55 54 49 36 40 62 63 1 44 55 46 22 19 32 29 26 32 52 40 57 38 7 20 4 49 62 15 34 53 27 51 44 18 15 24 4 23 18 20 34 18 35 16 50 61 23 28 31 60 58 29 6 55 22 27 6 7 55 45 29 22 46 38 8 4 37 12 1 7 8 18 31 29 49 58 41 20 7 40 22 19 0 42 14 43 14 29 6 50 24 12 50 31 1 25 38 46 1 5 1 40 63 38 7 43 34 31 11 6 38 14 28 51 21 42 32 20 6 5 29 19 
37 11 4 29 59 17 49 27 18 62 25 51 42 46 63 30 40 36 19 18 5 26 22 3 8 57 42 46 15 55 2 42 34 40 0 30 21 0 6 24 25 7 49 40 30 15 12 43 14 7 48 42 49 17 28 42 56 31 55 58 58 35 46 33 18 7 49 38 6 23 41 53 8 58 39 5 22 14 46 15 35 53 5 55 61 42 0 39 4 17 1 30 61 22 53 49 43 26 13 25 0 46 3 57 29 39 47 50 20 60 23 29 9 49 27 35 11 7 4 10 22 40 49 60 28 33 32 23 
51 60 30 46 1 17 57 48 9 32 48 15 43 61 17 47 60 10 58 60 12 29 49 22 3 19 43 7 23 59 45 30 29 1 30 44 6 61 7 15 35 43 63 10 5 27 11 5 39 26 45 46 8 45 14 8 47 1 61 32 58 32 43 14 21 46 34 29 12 36 41 36 28 7 17 21 20 60 3 17 16 4 0 7 5 47 62 11 13 41 57 18 24 16 43 62 54 40 27 8 47 4 10 40 60 50 36 52 41 42 47 48 49 27 30 46 52 52 12 56 20 9 42 16 55 15 59 48 
0 21 35 46 28 4 26 25 31 18 51 4 21 21 49 33 6 3 3 59 32 49 31 12 53 49 51 20 4 59 34 19 56 26 17 3 17 4 39 7 5 47 23 7 25 2 56 39 51 8 30 17 58 51 43 61 56 32 10 23 33 32 31 49 19 27 5 12 13 41 20 36 53 17 52 21 25 3 39 18 48 20 51 16 58 43 59 49 15 23 56 26 1 16 57 49 27 57 5 0 21 33 23 35 47 49 47 39 49 28 0 23 13 55 10 6 38 22 63 36 32 21 2 40 55 14 26 63 
59 48 45 2 30 42 28 48 14 17 29 39 40 52 14 22 37 55 41 4 54 33 51 24 44 60 15 63 5 15 13 35 0 25 61 30 17 39 62 14 30 11 63 46 25 2 51 55 56 28 2 13 48 24 27 53 1 55 25 6 0 19 26 34 14 5 40 19 13 11 24 14 17 18 10 13 49 61 53 32 52 17 11 32 11 21 23 15 59 7 25 25 11 14 60 12 35 27 35 10 59 55 55 42 13 22 27 34 40 17 11 33 60 37 24 13 12 42 36 33 29 63 22 29 33 33 37 25 
43 18 6 55 45 54 11 26 15 2 41 61 31 20 0 38 45 20 21 19 52 15 57 44 54 14 15 51 40 20 59 31 1 11 55 33 18 23 24 29 2 31 30 51 28 38 6 41 3 44 44 3 63 44 30 62 6 42 20 51 24 2 11 6 30 28 37 52 55 13 44 12 37 32 12 35 51 13 36 42 8 62 13 27 8 26 2 54 52 35 35 40 61 62 46 33 53 19 61 31 14 36 52 39 41 38 20 53 7 26 3 30 52 29 42 55 42 10 1 43 29 61 54 31 1 52 41 5 
52 47 32 59 0 41 53 51 54 51 47 46 44 56 37 54 9 30 48 40 3 20 12 29 62 5 41 16 23 56 32 33 24 31 17 14 3 34 35 53 59 50 23 60 57 6 20 15 1 37 57 32 54 30 4 9 51 8 58 54 50 49 19 61 45 40 62 40 3 62 28 60 61 37 21 61 0 24 57 50 57 59 21 4 61 63 50 5 36 46 47 8 23 16 11 26 16 33 34 3 38 22 16 5 30 38 7 55 42 42 8 11 0 27 56 39 58 42 31 23 30 3 49 28 48 53 56 10 
60 43 24 19 20 33 34 54 39 24 3 9 7 53 46 57 38 16 24 56 10 59 20 4 11 45 36 41 12 51 15 50 3 44 21 58 11 2 54 36 6 46 56 37 7 62 59 0 50 6 16 28 0 55 25 36 14 21 4 54 20 17 55 24 19 33 45 14 56 53 4 37 1 44 30 31 25 51 56 32 10 39 19 22 63 2 39 48 6 9 48 5 40 3 30 53 53 46 20 40 38 48 53 38 62 25 27 4 5 46 11 49 61 15 37 55 63 39 13 28 38 52 31 62 28 63 47 28 
31 23 3 18 24 12 27 37 43 4 55 59 50 9 44 0 9 39 40 33 47 52 50 34 8 54 5 33 33 43 45 45 56 16 24 56 28 15 34 54 56 50 36 46 21 62 7 21 31 28 53 28 2 34 57 27 5 15 29 34 14 5 48 50 57 45 53 27 36 61 27 51 38 21 49 21 26 7 48 22 44 29 29 51 61 35 36 17 6 32 37 19 49 42 9 52 23 27 59 0 3 43 60 9 35 0 10 48 42 30 35 45 1 59 17 48 38 14 32 51 31 61 31 23 38 62 60 30 
7 49 19 63 43 57 62 12 11 13 46 2 11 13 1 15 0 16 20 25 48 45 40 57 51 60 55 51 20 14 9 53 8 24 25 24 54 46 48 28 48 29 33 55 4 31 56 53 13 47 39 41 5 37 54 34 33 30 34 10 61 28 45 19 28 53 25 19 6 7 4 47 31 18 36 10 6 46 49 13 62 48 26 37 7 60 63 56 53 35 39 58 49 53 63 0 9 60 34 53 62 35 0 13 13 31 51 58 2 19 6 14 14 17 63 62 33 49 50 11 63 30 9 4 36 58 8 38 
22 15 42 39 45 3 19 59 60 32 39 12 55 52 34 50 45 8 33 44 49 62 4 34 2 18 30 60 58 21 24 36 17 32 17 45 35 53 10 0 24 37 10 44 16 54 51 1 39 3 43 30 23 36 60 17 47 25 2 2 8 51 52 49 7 30 35 6 53 34 50 3 63 0 16 12 5 39 30 13 17 39 46 29 32 5 7 31 55 30 63 60 13 2 49 26 45 29 60 3 30 9 41 43 46 52 52 41 36 26 62 62 37 44 10 7 26 32 49 61 23 27 25 11 26 33 52 34 
27 7 5 6 63 41 50 2 54 21 25 21 37 7 44 9 63 3 8 29 59 1 37 53 42 20 9 17 5 28 51 4 17 47 32 40 18 24 18 35 54 41 61 9 38 57 15 18 29 4 34 9 18 24 4 23 58 10 22 56 2 23 8 4 27 30 18 38 5 58 16 8 45 16 49 43 5 10 29 26 18 40 31 60 49 58 54 15 12 48 58 47 8 35 60 36 41 29 18 25 3 36 59 30 34 46 41 27 11 47 18 3 7 6 62 1 5 33 58 53 18 63 36 27 16 63 0 25 
47 24 35 48 28 32 26 17 38 32 51 23 3 44 51 17 7 13 46 11 32 27 19 42 51 4 11 9 33 20 52 60 17 5 21 19 16 23 46 20 40 7 14 54 55 47 9 24 34 24 29 61 51 14 47 19 29 34 24 38 59 42 37 42 50 36 31 25 2 10 24 43 57 31 55 17 2 26 31 63 4 24 41 17 32 0 57 19 40 4 11 20 52 42 47 15 51 8 33 3 55 28 0 2 7 49 10 37 40 59 25 20 39 3 45 33 63 19 38 25 59 43 0 37 30 38 38 21 
13 9 9 54 60 17 33 41 49 23 44 62 61 2 45 40 11 33 47 52 39 38 63 31 54 15 23 62 2 50 35 50 2 22 62 36 39 23 44 23 0 57 61 54 17 52 61 49 45 29 48 61 63 56 15 15 34 10 59 22 31 53 58 45 42 24 4 25 62 63 20 22 21 21 28 40 21 10 47 20 37 20 16 58 29 2 7 5 5 32 30 10 40 60 15 8 27 51 9 54 39 35 22 10 42 23 8 7 50 56 45 11 63 19 27 8 38 18 49 5 7 40 53 43 20 17 24 55 
53 38 24 22 46 22 48 58 11 26 60 16 47 20 37 32 8 43 46 45 43 5 36 35 20 46 0 27 21 21 34 49 14 45 31 53 32 14 26 29 50 24 20 23 0 57 61 0 35 26 21 16 5 10 48 6 15 46 34 4 27 4 61 44 61 49 55 31 22 30 26 34 45 3 21 10 40 21 58 52 62 56 20 9 31 5 17 24 33 28 63 53 11 43 22 8 4 23 15 29 8 35 35 4 55 36 0 47 58 44 52 60 39 41 59 11 42 39 18 28 12 11 30 4 29 8 45 14 
43 7 59 17 19 60 28 3 31 4 34 61 10 49 30 14 27 16 35 9 31 10 52 36 54 0 34 57 34 50 18 40 15 33 57 27 33 5 16 16 12 30 12 2 63 18 54 36 43 20 3 5 17 46 0 7 30 0 32 39 32 58 10 22 19 30 9 14 23 5 14 32 17 7 37 10 32 23 13 13 35 60 7 14 24 40 56 58 17 51 33 7 36 16 55 1 2 54 46 25 51 31 29 22 39 29 26 2 57 14 1 32 58 52 30 8 29 15 8 18 2 59 29 31 16 30 11 6 
11 4 55 37 57 49 6 44 24 40 36 3 37 37 30 42 32 53 55 51 5 24 1 36 61 21 63 20 1 50 8 63 28 0 13 30 35 38 22 51 32 9 2 12 62 15 1 13 1 55 60 6 48 59 29 42 46 9 3 61 15 36 25 58 55 53 23 22 58 42 62 9 42 0 53 47 37 3 53 19 52 60 8 47 40 49 38 8 2 48 15 9 44 36 61 19 9 53 42 27 28 2 58 36 15 56 1 6 20 51 5 47 61 9 40 29 16 10 57 35 57 50 0 22 32 37 15 45 
26 14 20 47 63 55 37 40 24 50 35 60 38 61 56 2 17 32 30 50 0 53 39 55 48 40 43 31 52 14 20 2 24 50 51 12 13 48 38 6 38 22 48 14 63 52 61 25 45 9 40 12 55 61 24 32 2 9 51 57 24 1 61 42 35 56 27 48 26 2 4 42 21 50 29 54 41 60 54 6 5 34 35 58 26 42 56 21 0 48 48 27 22 32 61 44 33 5 15 36 33 9 8 14 8 60 43 35 24 48 35 52 34 56 36 39 47 49 38 38 43 56 45 59 14 62 46 3 
49 38 34 11 49 6 46 22 10 16 52 2 42 45 23 8 49 13 57 23 8 50 63 50 33 27 2 58 63 9 3 48 62 61 61 14 53 63 38 32 60 49 28 0 27 22 39 32 55 34 61 49 42 50 6 57 11 12 51 4 51 29 41 36 43 61 16 59 37 47 20 51 17 30 1 26 51 39 62 35 22 45 52 21 32 18 59 60 13 14 16 49 27 24 52 55 60 33 54 25 62 62 9 16 0 62 57 1 42 4 58 23 6 43 54 42 20 38 16 40 38 6 61 41 46 2 55 22 
61 39 30 62 58 34 28 10 42 62 60 10 4 52 59 28 23 15 33 45 15 45 27 21 16 20 58 42 43 20 52 50 47 53 2 46 30 37 62 38 28 15 5 53 53 28 20 42 56 42 6 23 55 13 51 43 59 14 21 51 39 21 57 26 16 45 41 58 28 56 34 1 40 25 51 63 62 11 14 2 0 34 6 4 43 28 28 16 39 11 22 16 6 46 39 36 53 63 53 55 9 44 26 0 35 14 57 21 2 54 24 3 58 61 22 52 21 9 34 17 2 27 43 39 61 6 2 3 
52 53 63 16 25 32 46 56 7 38 12 51 41 36 33 47 61 17 29 23 13 54 36 28 31 50 0 35 52 20 13 28 22 38 32 5 54 26 42 31 16 52 60 31 37 55 39 23 39 26 60 23 34 20 60 61 28 37 3 55 51 13 27 31 42 46 35 55 56 17 33 57 0 30 5 58 33 33 14 1 55 59 27 35 2 42 61 28 40 55 36 9 26 41 5 22 24 28 45 12 21 37 28 22 8 1 9 60 18 39 47 8 12 60 63 16 18 57 57 24 29 29 44 58 9 15 61 23 
