P2
128 128
63
13 7 35 10 4 52 30 17 50 52 52 44 20 53 6 42 42 24 57 58 31 14 2 1 50 31 34 25 37 22 6 39 23 9 19 57 31 53 61 58 3 30 6 12 22 27 26 17 16 35 28 37 47 60 32 11 59 34 22 55 44 40 54 21 42 61 47 21 27 19 44 35 13 18 10 19 35 26 42 30 6 50 29 36 20 63 46 31 8 53 24 33 52 51 57 41 56 28 62 5 54 18 62 44 8 55 48 28 25 13 24 55 38 60 8 23 48 46 56 44 8 13 63 8 62 10 13 9 
54 45 2 38 54 12 25 60 60 47 41 3 63 25 58 29 55 45 8 45 47 63 56 21 6 55 39 61 13 2 47 12 0 19 47 13 39 13 37 13 30 22 60 0 4 45 16 31 5 47 56 51 18 58 12 23 31 40 17 42 57 52 60 1 29 51 62 14 59 28 19 58 29 20 28 25 63 11 7 48 60 45 16 38 48 24 44 4 62 37 35 30 43 31 13 17 31 45 52 31 29 6 39 33 24 50 13 39 6 5 39 4 16 58 2 26 26 27 39 30 7 59 34 50 60 41 27 63 
14 36 51 10 59 32 5 10 34 26 62 45 42 7 42 1 55 46 9 20 33 37 31 41 8 11 62 29 63 11 15 0 50 18 21 20 7 58 4 14 37 14 2 48 49 15 51 5 52 20 48 37 15 51 51 20 22 41 23 28 48 12 5 39 22 44 54 12 12 50 4 31 59 30 53 47 8 3 44 52 39 17 36 11 47 23 13 34 24 50 32 26 25 36 60 8 51 63 22 34 14 40 44 11 57 41 32 50 51 23 55 8 28 39 8 56 35 44 55 38 50 9 37 25 20 5 9 8 
13 51 23 54 20 25 15 26 34 63 27 11 13 6 45 47 22 61 59 43 45 0 35 8 61 16 20 35 27 8 4 56 50 33 2 32 19 0 20 0 59 52 0 15 24 30 18 59 39 47 46 39 35 10 24 32 42 21 62 14 5 42 35 7 26 35 26 23 54 21 14 5 40 18 13 51 58 27 21 38 41 10 12 56 24 28 10 31 25 53 17 17 47 31 43 25 37 20 42 25 25 5 46 49 47 20 60 19 61 25 18 59 38 30 21 47 16 8 47 3 43 5 11 55 25 5 26 62 
52 60 22 36 48 31 40 61 63 2 49 31 22 46 10 60 5 48 33 9 43 12 33 22 7 47 13 59 60 11 51 44 51 13 38 22 10 36 0 37 22 57 45 36 49 11 55 48 52 24 15 22 43 16 36 47 10 15 25 29 44 23 14 31 49 60 53 16 49 5 63 59 42 43 20 18 48 51 63 13 8 27 33 20 56 40 39 35 49 62 24 44 0 50 8 3 21 45 45 57 52 13 50 46 26 49 41 40 49 30 5 1 54 22 46 5 36 40 25 48 62 48 2 4 21 6 22 12 
23 54 24 43 43 42 47 27 20 16 55 58 29 46 54 62 42 18 33 44 17 41 58 18 49 62 16 23 24 38 5 6 9 55 29 2 5 26 24 47 55 11 37 17 58 58 38 63 28 22 37 57 58 31 17 39 23 41 16 60 21 7 3 13 32 2 22 8 55 60 32 3 9 20 12 48 60 46 23 48 8 21 54 25 2 16 35 20 22 28 53 38 44 10 40 6 60 43 30 32 18 2 4 46 35 48 28 60 54 20 18 2 61 40 5 32 16 54 23 17 25 12 43 38 4 0 29 9 
25 13 26 26 4 30 17 46 55 43 42 26 0 5 50 50 7 43 29 41 56 35 50 39 51 14 57 54 9 46 29 52 48 39 13 25 32 10 12 23 25 37 63 6 0 4 34 2 34 27 53 2 16 57 37 14 29 40 51 9 43 23 23 61 19 6 41 63 7 39 13 15 37 58 7 16 60 63 24 62 21 19 16 44 11 41 30 63 22 52 43 53 58 31 55 36 28 2 0 17 26 29 10 10 32 54 60 4 57 61 17 3 12 37 52 56 6 61 32 12 20 45 49 38 12 56 41 46 
60 40 34 62 31 37 3 59 43 1 37 45 49 27 23 31 61 51 60 59 33 57 16 34 31 3 7 26 36 59 5 10 31 19 14 36 50 36 48 29 25 42 47 0 11 37 0 46 36 3 8 27 25 18 56 37 20 43 44 63 48 50 59 18 55 8 18 11 39 58 13 40 33 11 25 60 48 29 55 26 56 48 49 13 22 63 57 29 25 62 26 0 29 21 38 62 23 56 19 23 44 35 45 36 39 20 7 34 40 14 18 30 49 25 41 19 45 0 21 59 16 33 11 56 63 50 53 10 
29 45 27 53 49 28 7 27 33 13 61 28 15 19 54 16 41 12 3 62 26 36 42 7 61 1 5 3 44 27 19 38 62 24 1 36 46 53 44 20 49 57 17 28 51 8 14 5 39 16 22 63 32 46 50 61 7 9 9 20 11 50 38 6 21 47 28 35 11 1 61 59 8 7 3 27 26 30 12 46 20 42 9 28 46 6 27 8 40 33 24 58 3 33 58 1 56 60 8 59 45 6 18 14 36 63 59 31 52 10 24 1 30 37 23 34 13 10 5 60 13 35 34 50 63 3 44 11 
56 21 40 13 21 34 13 51 56 31 31 12 18 1 36 31 21 53 50 60 8 9 1 56 10 54 59 39 26 62 49 2 59 0 22 14 49 57 45 54 26 4 60 2 25 35 45 41 29 3 55 15 14 11 30 14 54 10 63 39 60 26 7 28 39 40 63 8 57 13 52 21 45 40 49 42 32 23 37 63 58 33 23 25 22 46 49 52 10 19 48 43 2 52 21 19 23 49 23 21 1 25 31 57 2 17 23 62 39 22 61 20 34 18 54 57 16 28 59 33 32 42 12 54 48 16 39 0 
28 3 2 2 56 5 13 48 35 40 9 14 38 4 45 63 3 1 29 29 62 44 23 21 58 16 46 10 53 17 39 32 61 32 11 56 39 7 47 18 4 15 19 13 3 20 58 48 11 6 28 25 9 61 1 30 28 60 31 12 44 47 52 13 56 45 54 60 14 4 33 54 1 43 42 5 37 30 14 7 50 59 32 18 59 4 34 24 55 56 16 37 49 6 11 35 29 19 22 33 4 47 59 61 16 42 57 8 37 25 34 23 4 63 27 31 39 46 61 50 12 54 51 43 61 33 6 44 
26 34 26 53 28 26 18 44 7 58 0 26 2 45 15 39 19 63 2 29 5 62 31 44 34 7 18 42 37 14 43 8 1 14 53 7 27 39 23 19 36 61 50 32 23 22 30 38 11 27 43 52 6 11 12 1 44 10 14 39 25 61 24 45 26 58 5 44 6 4 30 62 27 19 57 8 26 10 57 2 5 36 27 18 36 14 41 44 53 44 6 60 10 41 36 45 39 16 18 34 34 25 12 4 38 61 45 55 5 10 16 36 46 49 56 43 26 20 53 37 18 31 54 63 29 20 42 29 
5 26 34 14 4 57 9 13 42 32 5 25 30 20 44 33 23 57 47 26 34 28 35 47 32 57 34 16 59 34 59 56 28 39 9 15 49 41 30 24 9 8 63 8 13 62 47 57 37 5 4 53 56 9 28 9 13 28 43 17 56 43 41 46 17 12 57 17 48 11 49 55 4 37 18 56 38 0 20 29 61 43 35 53 14 9 4 1 11 12 1 34 8 52 4 37 20 48 31 16 56 19 27 3 24 6 51 57 4 9 19 3 6 17 33 8 18 57 9 56 37 45 8 18 54 30 50 15 
46 41 5 42 14 24 33 35 22 52 8 10 18 53 3 12 51 56 39 59 36 63 6 60 52 9 1 52 13 63 62 37 31 14 33 62 25 54 8 4 42 2 6 41 49 24 44 17 18 8 34 50 27 11 47 50 50 39 27 9 4 39 12 32 0 61 17 19 26 41 0 60 45 15 42 14 51 51 13 50 43 38 11 63 45 15 55 36 17 9 48 60 13 55 50 23 20 34 2 8 2 5 39 33 19 63 55 63 22 7 27 41 31 7 14 44 8 14 18 4 16 43 42 43 29 45 10 22 
25 35 15 26 12 53 11 14 42 63 60 4 63 57 42 49 22 52 14 37 59 55 44 34 14 49 13 52 54 41 2 21 12 8 55 26 59 54 9 38 2 47 54 33 60 48 3 28 54 27 51 48 6 46 63 58 42 26 3 12 33 22 23 52 37 54 57 26 6 33 37 17 6 32 24 37 26 57 32 26 14 37 39 49 48 39 38 26 23 61 42 41 45 25 56 8 38 58 36 28 3 62 36 60 50 1 36 35 16 39 18 32 40 12 32 55 40 51 21 40 14 27 54 24 36 61 31 7 
30 46 16 1 24 40 13 56 53 6 60 18 21 23 41 36 51 24 17 10 55 17 60 35 40 16 24 38 25 19 41 38 36 2 32 48 11 6 6 58 35 9 28 50 19 46 14 5 19 61 12 11 12 45 5 28 56 5 57 34 29 53 8 46 6 11 54 50 30 23 38 14 3 45 13 63 53 46 46 0 35 5 54 26 54 52 48 22 62 59 18 48 48 33 37 17 60 7 11 46 20 16 29 4 38 62 50 33 60 56 23 20 42 57 14 58 0 11 22 55 58 43 24 24 46 19 11 13 
21 0 46 54 0 54 11 58 38 20 18 60 38 3 17 50 38 33 10 60 13 30 30 31 63 23 9 40 19 36 27 23 60 63 63 40 16 53 38 58 30 41 2 14 58 55 10 63 11 12 18 18 23 48 27 9 31 32 41 10 3 12 20 24 10 16 8 24 28 30 60 39 44 3 44 45 53 31 58 39 43 20 16 47 50 20 41 15 37 54 44 6 61 34 50 1 61 48 48 52 9 49 59 61 30 11 49 40 3 24 53 4 62 37 43 55 35 22 63 4 60 27 23 27 29 1 62 28 
10 50 52 8 60 1 22 13 33 52 24 7 58 18 45 6 50 16 55 36 45 4 45 50 50 22 40 27 54 15 39 9 28 11 26 21 19 21 36 52 28 27 47 14 42 49 4 48 14 8 34 11 36 35 61 1 6 35 31 30 50 44 15 3 16 39 36 21 21 2 19 27 33 56 59 44 56 9 52 7 47 38 13 54 53 12 61 23 32 55 49 15 55 44 19 20 11 26 3 19 0 30 8 15 13 8 55 2 11 5 13 33 58 62 59 45 57 24 8 50 14 3 53 30 31 19 46 49 
11 2 56 5 2 37 19 57 49 34 2 43 26 42 38 39 62 19 13 56 3 39 47 4 63 60 61 38 63 61 3 1 37 6 57 63 16 36 39 35 31 34 60 0 47 2 19 47 20 53 36 12 20 6 8 35 33 19 59 27 11 36 61 20 36 2 2 39 11 19 55 16 4 5 24 24 24 29 38 38 56 27 37 13 34 8 5 58 9 23 15 27 15 36 49 47 13 12 53 22 11 21 26 33 44 33 20 58 62 60 45 48 22 60 50 61 59 20 14 24 3 8 18 44 5 36 44 40 
37 39 8 34 27 14 26 4 63 58 33 14 26 22 5 30 12 28 44 15 54 36 32 31 54 37 32 41 43 43 38 17 26 42 41 4 32 34 37 32 32 42 7 56 22 40 56 12 26 10 41 30 60 10 32 25 4 31 41 32 63 11 54 41 20 0 42 16 49 3 41 9 28 46 48 27 25 48 2 54 61 17 54 11 59 51 25 0 62 46 38 41 43 62 20 53 34 8 32 30 8 16 44 53 30 29 45 27 40 25 31 55 59 17 50 50 26 37 52 52 34 45 29 15 4 57 34 0 
11 42 28 14 38 3 4 59 11 1 36 6 63 10 18 51 33 45 63 59 21 4 17 47 57 5 39 16 52 13 53 48 51 13 57 59 56 37 40 6 8 24 8 4 41 48 24 31 45 52 2 22 29 3 53 42 0 63 50 18 19 44 3 6 35 8 36 59 14 9 33 37 30 40 43 17 21 25 40 30 12 21 49 53 18 54 18 2 61 50 57 60 1 58 55 11 31 59 48 24 3 28 25 42 19 11 44 13 52 57 0 44 51 37 7 49 33 10 1 21 4 16 11 22 57 45 23 55 
9 6 13 0 44 6 4 30 41 55 33 23 53 24 4 52 59 28 2 46 16 47 42 10 54 53 41 53 14 57 37 27 59 47 51 2 14 21 20 0 47 34 38 32 3 29 28 63 54 26 32 59 42 21 61 18 28 12 37 1 48 12 54 59 32 35 31 20 1 43 62 56 41 63 14 42 36 4 32 51 54 48 11 1 45 7 30 37 10 43 60 39 16 27 46 62 16 44 18 42 60 4 38 11 17 50 21 49 29 53 48 61 23 54 21 2 16 21 4 1 31 45 39 45 43 24 40 33 
35 1 21 6 6 35 4 4 36 19 49 41 49 58 43 52 2 52 36 55 5 32 29 42 53 57 2 48 3 35 5 57 52 7 49 30 36 22 56 48 52 10 55 27 32 45 2 3 49 39 42 30 58 21 7 21 15 60 1 27 39 47 5 46 12 1 8 43 39 42 50 19 58 61 0 28 50 48 12 22 57 12 38 16 31 23 14 27 22 38 9 54 23 28 40 13 20 45 40 54 54 47 44 16 10 57 52 7 29 57 58 56 12 33 52 18 59 37 2 41 48 8 6 15 16 31 14 36 
47 29 12 26 44 11 14 43 7 11 29 51 43 9 32 0 24 20 25 10 42 60 52 7 59 0 0 20 29 19 10 18 25 37 24 14 61 1 27 13 10 28 39 16 13 36 7 2 4 39 52 16 24 60 16 41 47 42 3 31 17 10 36 36 18 9 34 53 28 62 13 14 62 6 37 20 52 30 13 43 26 23 15 7 27 40 49 28 23 51 55 54 31 41 13 25 57 22 33 34 23 0 61 2 57 15 35 28 47 23 11 43 10 58 8 30 8 32 45 8 55 62 10 3 26 7 50 35 
50 36 6 45 49 34 16 19 43 47 38 26 11 7 44 41 35 7 28 45 5 14 28 62 19 13 52 13 16 49 23 48 36 6 62 16 48 40 19 0 17 24 9 13 36 25 62 39 63 12 29 4 54 16 5 62 9 8 17 45 13 10 48 39 5 63 41 51 48 10 61 56 49 16 61 22 51 47 30 24 63 59 38 14 8 1 1 48 9 27 16 13 2 38 42 45 0 12 23 6 35 8 0 26 52 6 42 56 16 39 20 34 22 58 33 12 55 42 35 40 57 28 16 43 9 23 39 29 
9 39 18 38 0 54 34 31 63 18 47 21 2 25 42 35 29 8 47 38 32 41 4 19 28 58 41 27 8 58 25 43 37 14 34 63 28 28 37 46 7 47 61 46 3 7 20 41 1 58 47 3 23 15 28 12 4 62 13 19 43 26 14 4 55 49 56 39 28 7 16 20 14 33 10 17 62 58 38 29 20 28 36 28 12 16 44 45 28 44 54 17 5 40 18 28 57 47 55 19 29 36 30 32 1 6 13 14 2 25 40 50 16 54 27 27 13 45 63 41 57 8 57 47 60 59 52 5 
50 6 32 40 53 29 51 14 7 36 18 52 20 7 39 19 15 19 12 27 22 25 60 46 60 63 31 56 41 44 9 39 32 22 4 60 15 4 31 39 3 1 16 29 54 31 24 24 3 3 25 34 2 35 1 39 5 61 30 24 40 43 21 9 49 20 44 20 58 10 14 35 59 17 39 19 22 33 49 51 60 54 13 8 1 53 43 22 51 52 22 24 6 23 45 37 2 40 10 59 26 44 38 16 31 59 16 58 44 13 23 7 0 34 8 18 58 12 26 5 19 27 4 59 47 26 36 61 
40 30 30 38 17 42 28 52 4 44 47 21 30 63 54 28 56 40 12 55 10 57 6 53 37 1 59 63 15 19 8 61 56 8 32 40 58 25 42 23 51 19 14 6 43 34 45 57 57 42 29 14 35 42 18 14 14 31 6 49 10 8 34 7 6 4 3 22 47 3 59 34 23 26 34 44 20 21 46 47 27 48 1 30 17 57 62 21 32 28 54 42 52 24 19 53 26 33 57 4 11 14 51 22 16 12 13 28 52 55 61 24 58 60 55 32 3 53 26 57 13 18 41 62 21 32 15 43 
40 43 12 5 27 49 47 49 7 29 28 35 60 55 49 60 47 10 39 39 46 46 59 56 52 33 9 37 3 49 11 49 11 40 39 30 11 35 45 25 29 7 16 8 48 21 4 62 51 53 38 21 7 22 58 10 6 11 22 23 58 57 62 16 33 0 63 61 48 24 0 13 12 0 27 63 35 26 56 9 48 18 14 14 24 36 52 43 53 5 51 33 22 48 6 29 57 44 21 3 47 33 34 15 46 38 51 31 1 56 50 28 4 28 27 14 31 1 51 28 60 48 52 21 62 3 43 25 
3 4 12 16 32 38 16 54 12 43 35 47 20 17 10 53 16 55 15 62 27 48 9 12 23 28 11 21 55 60 12 57 25 58 13 43 62 58 21 35 54 0 17 12 38 16 46 62 34 13 13 21 54 46 24 46 2 44 26 36 40 18 10 44 31 61 2 19 8 47 4 19 14 58 1 18 54 43 7 62 54 8 8 39 4 6 14 9 18 22 16 3 57 28 47 35 47 34 11 40 45 27 42 17 45 16 20 51 5 53 8 38 20 56 47 31 21 2 34 31 53 37 15 38 20 16 60 52 
53 53 27 19 15 5 24 62 2 61 13 22 4 39 53 32 7 8 54 41 58 27 8 35 28 50 19 2 47 48 8 48 0 14 8 46 15 27 25 6 49 57 54 35 50 13 27 61 57 40 60 15 22 47 55 32 42 4 36 47 51 0 31 44 52 55 56 27 15 51 0 21 57 44 34 14 52 7 16 6 33 19 21 56 19 36 10 8 53 35 9 32 52 55 2 33 35 44 25 53 45 42 28 8 18 11 49 50 2 30 4 42 54 18 61 18 61 0 16 39 35 9 30 51 4 63 19 36 
25 9 4 49 19 40 11 39 17 32 48 39 5 0 49 18 1 59 6 46 30 18 0 28 21 51 22 37 35 49 9 8 10 16 8 43 7 12 51 9 53 15 27 15 52 18 33 44 52 30 26 5 27 55 40 34 46 63 43 59 6 37 16 2 41 8 46 3 55 4 37 3 33 7 37 16 11 6 58 62 59 29 56 11 26 5 59 30 34 34 54 63 34 27 3 52 3 23 20 1 49 35 41 57 35 2 33 37 4 9 53 38 58 16 37 40 6 57 52 59 54 21 38 31 39 37 7 8 
16 39 5 56 57 36 37 4 4 23 24 53 12 31 34 32 48 61 28 25 8 52 44 48 48 42 1 48 51 9 39 10 7 53 53 59 26 59 37 59 45 39 49 60 15 27 49 57 43 54 42 3 22 17 31 44 17 18 55 51 34 17 39 58 39 40 28 37 56 35 35 62 6 40 50 5 4 46 41 7 18 62 51 55 18 23 40 61 47 45 41 31 51 21 43 55 49 31 1 35 37 63 0 44 51 32 57 42 60 58 48 32 14 0 46 40 53 3 56 26 20 8 37 46 23 13 51 56 
49 63 17 22 51 35 10 47 47 50 35 53 12 42 28 63 44 5 4 40 12 23 53 41 5 15 56 17 8 56 36 39 56 15 7 17 55 61 28 21 15 31 13 36 13 59 12 3 45 22 38 39 62 38 23 39 58 56 61 37 20 46 18 6 22 52 12 38 38 61 38 61 45 56 5 11 0 18 27 37 25 30 57 7 13 40 44 13 29 8 3 50 39 6 28 51 19 13 40 24 12 31 19 2 10 24 5 32 24 59 50 37 34 21 51 21 5 43 62 31 14 52 43 13 7 16 41 41 
21 25 19 17 60 37 5 12 27 9 59 28 39 49 3 14 48 60 37 6 50 31 27 40 61 58 54 13 57 61 30 6 14 10 42 42 25 57 42 37 50 43 31 62 5 16 43 35 57 55 36 29 16 57 17 40 61 45 48 14 5 50 59 17 20 1 53 43 25 3 11 38 49 21 43 57 7 16 35 49 5 18 35 30 37 55 2 52 43 36 48 26 35 44 15 62 62 53 53 21 54 45 54 55 24 23 37 28 42 32 10 6 31 15 35 58 22 3 33 54 43 51 10 23 24 12 23 17 
55 46 9 40 32 1 37 39 36 56 4 54 33 42 11 48 36 18 21 60 29 30 59 45 8 45 18 48 11 44 32 4 52 22 9 45 7 44 61 43 52 37 20 19 4 55 42 2 13 45 16 50 35 53 1 53 8 35 47 29 46 50 62 6 61 51 3 10 18 28 19 49 48 13 53 32 27 37 59 45 39 59 43 2 17 17 38 20 55 8 53 52 21 32 61 9 33 1 38 2 60 63 60 46 10 44 34 46 49 19 0 7 32 51 13 53 42 36 34 61 2 28 36 12 46 32 50 25 
16 30 22 38 51 3 4 48 56 62 47 12 46 0 29 40 6 49 19 10 53 18 10 53 39 58 29 1 56 57 30 46 29 48 42 28 51 52 9 53 51 56 45 45 13 57 21 10 19 10 12 0 26 63 19 38 29 9 11 14 51 47 21 52 41 0 42 4 18 24 56 40 56 39 59 40 11 62 58 29 35 53 14 27 22 20 57 3 38 45 62 33 12 61 57 15 17 62 53 25 47 6 60 62 52 25 7 6 27 51 24 2 51 8 8 40 55 36 63 38 39 39 22 46 47 22 20 15 
6 34 39 56 59 1 37 47 21 3 0 18 59 54 53 31 37 32 14 46 1 25 54 45 15 4 33 27 30 17 38 14 44 46 20 30 43 31 31 26 52 33 50 42 42 25 21 37 52 62 2 48 9 8 42 2 16 12 41 28 42 27 14 47 44 8 55 2 62 11 24 11 58 4 23 53 52 5 3 42 38 40 32 47 44 28 3 31 45 39 26 33 22 22 61 4 48 39 3 42 40 49 3 12 18 50 22 62 34 51 26 56 17 25 63 51 59 8 4 2 63 19 31 19 44 25 62 41 
46 44 34 51 20 16 50 27 22 17 20 18 34 47 34 25 42 17 48 50 45 54 24 41 41 7 31 14 32 16 32 24 36 24 47 20 10 54 20 30 40 50 28 27 57 51 16 14 12 14 42 46 62 34 57 26 63 18 3 9 50 45 48 54 17 39 18 41 20 44 4 13 2 19 40 29 34 27 54 28 31 14 34 15 58 29 40 18 18 18 43 14 46 15 3 10 28 23 42 8 34 24 9 38 20 56 42 56 29 36 47 41 14 17 19 21 30 19 44 62 56 5 4 37 24 47 15 9 
53 54 39 51 53 55 20 20 47 26 4 54 47 1 56 61 12 57 21 25 60 44 5 48 56 19 17 3 55 52 52 9 19 59 8 13 44 56 12 46 49 60 34 5 17 61 27 52 26 36 55 37 6 54 48 12 24 25 53 28 26 42 0 19 5 53 8 62 55 28 38 14 24 29 16 62 41 30 11 43 12 22 21 52 33 22 63 47 51 45 37 46 37 29 8 25 23 51 60 13 4 22 62 25 37 53 36 33 56 46 62 54 44 26 49 31 31 60 4 46 24 34 37 11 35 16 5 60 
25 45 18 11 56 46 2 9 27 46 34 53 18 50 51 19 28 14 35 57 44 40 34 7 11 7 3 18 49 59 0 13 45 51 56 26 47 10 40 41 55 35 33 10 45 23 12 29 46 5 17 27 11 47 32 61 41 14 62 16 37 51 14 53 10 37 20 28 52 28 14 61 45 9 4 61 63 24 45 5 30 46 17 19 30 18 32 50 32 38 1 18 58 14 15 4 41 63 12 24 34 32 56 55 14 11 61 53 52 37 48 35 23 53 42 56 55 48 20 51 1 40 22 48 17 4 40 28 
31 40 57 7 25 57 36 20 49 15 28 62 59 47 59 33 50 49 29 63 54 30 40 45 30 52 26 3 55 58 21 54 9 53 55 8 46 2 21 38 26 10 57 25 40 36 57 36 25 58 40 41 26 33 15 36 25 29 24 42 31 0 53 63 40 22 57 45 38 10 0 40 37 11 60 0 50 46 4 35 33 32 8 50 14 12 22 59 28 22 45 18 4 37 17 38 19 63 6 17 44 56 27 51 15 34 47 44 13 19 2 10 61 41 10 27 54 5 28 21 48 46 56 12 22 61 35 61 
43 50 49 28 31 55 31 25 53 20 17 10 18 1 55 39 17 9 20 27 61 23 24 48 38 19 3 30 38 36 46 55 19 60 35 7 34 16 6 23 41 16 24 23 17 27 31 8 31 42 36 19 34 0 60 32 20 8 8 41 5 18 29 17 5 56 55 9 17 50 56 40 18 37 20 22 44 39 15 25 45 21 50 7 63 42 13 48 35 17 60 29 9 40 45 0 15 33 21 24 4 26 43 32 14 49 30 58 32 29 0 60 43 52 42 27 2 37 63 28 9 16 43 10 57 30 24 46 
7 26 23 52 32 53 45 30 49 28 35 1 50 46 38 57 17 53 43 8 41 28 45 34 26 42 60 19 27 19 49 44 26 8 38 62 42 40 23 4 12 49 18 51 61 23 4 57 44 54 53 36 55 5 57 57 49 53 4 8 16 23 31 58 12 19 50 57 24 36 23 15 5 5 16 40 54 41 21 10 55 30 14 54 13 10 5 56 27 49 63 34 33 58 50 44 21 36 16 10 42 7 10 25 32 53 40 37 57 48 35 59 35 34 32 15 43 53 50 63 24 46 0 46 39 14 6 60 
33 17 16 23 47 24 16 2 53 45 12 39 8 40 6 18 53 38 0 2 3 56 37 29 31 24 10 59 0 47 42 3 56 39 55 18 22 53 26 12 33 50 60 63 40 63 45 19 48 25 51 55 6 19 54 55 11 12 50 24 34 34 14 22 25 45 6 34 31 10 62 13 40 45 60 26 5 54 30 42 24 24 9 59 38 2 43 55 24 1 53 44 6 36 63 21 47 38 53 55 41 23 5 40 2 14 27 60 8 59 16 23 0 53 58 11 14 43 23 27 37 29 36 25 39 9 5 59 
46 47 34 13 10 46 62 15 11 19 10 18 4 16 63 14 7 40 56 9 17 63 22 29 46 7 39 18 35 25 6 13 16 15 6 48 37 37 24 45 11 31 59 0 42 59 44 38 7 16 38 29 12 8 63 13 23 12 52 55 26 21 16 45 38 48 11 18 8 18 16 45 16 13 63 43 32 18 39 62 21 31 29 38 52 31 14 5 29 6 18 38 45 31 49 26 9 61 7 30 63 52 12 28 8 7 47 48 44 4 52 18 4 0 27 46 50 31 13 8 28 33 36 45 57 34 60 44 
60 55 36 37 19 46 26 39 20 60 41 0 19 38 63 41 24 2 1 32 15 48 34 47 19 1 21 19 35 31 10 63 20 38 45 18 2 56 51 39 14 46 32 41 4 19 14 16 23 61 4 2 22 51 51 47 55 17 51 40 18 15 19 48 14 13 8 8 23 1 22 43 27 1 62 60 10 35 12 28 18 38 59 55 38 10 58 40 63 37 46 34 53 33 21 35 33 22 30 50 18 20 28 9 18 52 59 13 48 15 42 22 42 42 8 31 13 39 52 55 60 16 30 21 56 8 22 37 
23 63 44 28 36 34 37 4 58 53 33 1 6 26 61 45 50 41 43 6 37 53 27 52 21 11 25 25 4 11 22 31 56 20 62 48 38 7 38 39 9 21 9 10 13 29 60 42 22 22 26 51 32 41 24 50 49 40 43 30 49 52 40 38 14 17 41 32 44 20 55 36 40 52 4 31 37 8 59 61 50 8 54 45 57 38 29 33 55 60 37 38 63 62 49 7 56 56 44 26 26 15 51 46 16 4 44 7 42 3 57 26 22 2 34 51 53 3 6 1 25 62 28 37 16 44 55 24 
6 2 22 43 2 32 44 7 47 22 15 26 3 61 5 60 47 2 60 60 8 49 34 62 28 10 9 9 32 38 55 48 11 25 35 16 44 6 17 14 14 62 61 25 10 25 21 5 32 30 9 1 38 7 17 51 35 3 44 2 12 38 16 8 50 59 52 36 11 7 34 37 45 60 18 54 39 10 44 10 49 16 55 36 35 54 45 42 52 16 56 6 31 23 40 57 3 46 56 41 46 37 55 41 6 47 19 42 11 8 38 53 4 47 11 17 42 49 22 30 2 45 13 51 56 7 3 45 
8 11 43 45 12 5 11 28 22 36 54 39 43 9 60 49 19 34 30 3 8 52 19 30 56 34 63 40 13 2 18 45 39 6 7 61 2 11 57 35 35 16 42 49 5 45 20 8 41 5 51 4 9 39 36 56 34 62 4 22 25 37 24 1 43 49 2 37 36 63 41 51 27 55 26 43 21 51 24 48 29 6 37 42 42 37 35 60 19 35 57 24 23 17 2 57 41 14 48 1 17 59 9 6 35 7 46 48 38 20 47 17 54 31 18 53 36 19 56 59 54 5 13 62 44 16 60 62 
38 47 63 27 20 36 21 6 8 51 29 35 10 16 31 30 48 34 43 55 48 59 19 7 5 11 4 20 28 6 1 59 19 60 20 43 13 31 61 17 54 21 26 63 62 0 20 10 49 62 4 63 7 56 4 21 39 61 53 37 37 37 15 28 7 37 58 14 48 38 47 16 26 7 20 59 54 49 63 10 49 43 59 37 53 24 25 53 21 21 16 12 13 32 9 39 52 18 4 1 35 62 63 51 2 52 59 0 51 48 28 61 46 28 63 63 49 22 14 63 40 8 55 51 16 33 47 33 
61 0 8 6 13 2 10 3 43 60 43 50 18 40 59 52 44 44 61 49 61 57 25 40 21 57 36 53 35 38 3 38 36 41 53 57 59 55 44 32 17 33 19 0 0 57 10 11 8 42 45 43 40 31 56 26 18 9 54 6 24 38 57 52 26 58 22 39 11 52 9 39 24 17 11 8 6 2 42 58 61 29 5 16 39 29 11 34 15 25 17 20 55 17 18 40 10 49 21 6 5 12 41 32 19 50 32 8 52 40 59 22 22 21 6 35 47 18 12 36 10 49 56 59 32 15 36 43 
9 63 44 41 16 12 19 3 56 7 21 37 27 29 61 28 59 14 25 38 37 10 60 60 1 19 14 4 61 49 11 7 6 42 47 37 4 3 63 16 13 18 41 0 19 16 33 30 47 30 8 38 20 54 52 31 3 38 59 18 58 15 23 15 4 47 17 41 20 31 12 33 2 34 34 53 39 3 13 23 4 53 14 9 61 15 22 41 35 42 32 17 51 48 22 9 54 24 43 55 54 14 34 56 48 36 8 12 44 20 3 53 15 50 57 58 35 17 13 55 34 63 29 6 25 54 0 38 
15 56 3 47 23 40 5 44 41 53 12 52 53 11 10 26 7 19 34 35 15 24 0 4 43 42 61 26 2 2 30 18 26 4 48 58 52 40 21 10 20 40 44 58 26 0 17 7 56 9 8 61 30 19 19 8 40 9 56 14 27 29 13 47 20 35 28 14 22 16 42 3 17 60 41 15 1 36 44 33 57 51 45 61 5 37 18 5 37 42 12 45 45 3 43 56 56 4 62 16 39 53 8 23 9 22 48 5 1 30 23 55 50 2 28 4 36 1 58 35 44 27 33 19 61 46 45 49 
17 37 28 51 5 37 58 47 4 12 50 45 5 53 0 34 9 4 39 31 14 58 60 31 33 57 11 59 20 8 24 12 19 20 8 1 20 31 62 63 40 25 32 0 56 45 35 9 24 2 52 62 34 53 28 61 53 50 10 13 63 23 28 37 27 9 25 15 11 62 50 49 26 6 12 39 35 59 39 58 38 31 48 10 32 59 20 23 41 44 1 19 11 34 51 63 57 28 35 36 55 11 16 34 17 60 17 29 45 27 15 49 23 61 45 61 33 58 45 42 49 33 39 19 7 21 19 55 
52 28 5 50 7 23 2 32 49 63 37 4 0 50 48 9 49 18 29 6 25 12 0 52 56 8 11 54 33 36 39 17 46 11 34 56 44 51 56 49 53 45 53 7 23 62 7 11 29 8 5 56 32 35 30 1 61 26 8 50 63 22 7 38 20 19 31 15 41 55 41 41 27 11 18 34 17 31 19 15 11 51 13 2 26 40 13 22 50 40 52 10 22 41 30 7 37 46 7 3 27 52 50 17 45 35 54 58 12 31 4 16 30 28 55 26 19 39 29 20 59 21 60 35 33 17 1 60 
25 61 8 13 33 47 29 41 53 10 63 16 10 26 8 6 54 19 2 37 15 54 45 37 16 39 29 38 5 55 58 37 4 57 61 47 53 45 41 17 42 33 38 17 35 25 29 37 51 22 4 38 39 56 56 52 53 38 18 22 31 52 7 11 8 25 10 26 33 63 35 59 7 18 45 0 0 60 13 62 30 37 61 13 14 32 47 1 22 54 61 15 36 16 17 22 40 4 20 23 53 56 9 34 13 30 10 46 4 44 43 33 21 8 35 13 1 0 17 46 43 44 1 50 62 37 8 24 
55 18 10 53 59 9 49 56 3 19 52 32 12 61 54 27 55 28 24 20 7 52 21 55 29 54 3 28 11 8 59 8 34 9 5 54 8 19 48 3 48 55 31 33 47 4 39 12 58 41 25 19 58 42 39 9 19 26 61 8 8 37 9 26 38 7 49 3 50 1 27 56 51 56 52 38 42 61 44 35 9 63 24 36 58 43 41 22 12 36 3 6 52 41 15 44 18 63 46 8 59 50 1 27 2 41 7 7 56 17 41 27 14 3 41 15 51 63 7 37 9 46 59 52 6 13 14 15 
27 55 47 42 15 18 42 15 40 35 2 2 6 18 38 56 9 6 42 23 63 4 57 25 12 52 12 48 50 43 58 8 52 10 50 52 35 19 6 58 2 60 19 62 17 30 62 37 40 63 13 12 28 24 20 46 34 44 21 26 0 7 53 30 7 39 39 61 9 41 19 8 0 29 43 32 5 41 23 28 63 54 41 11 55 5 63 39 51 37 2 12 55 34 60 17 48 26 24 42 36 32 15 49 4 50 52 63 59 41 39 23 4 9 37 37 10 35 40 14 24 24 33 25 17 31 40 13 
11 48 8 26 17 53 20 44 39 37 5 56 16 18 48 43 23 4 10 46 60 24 59 46 15 53 22 53 53 27 34 63 14 46 32 23 61 28 18 29 29 32 25 47 58 26 41 26 38 35 7 14 63 56 61 15 60 42 25 0 41 52 5 26 55 12 10 3 33 18 52 23 12 33 35 54 60 25 8 57 12 25 38 44 19 11 50 55 28 47 26 17 51 15 29 28 27 24 62 29 12 4 12 16 50 17 52 37 28 0 26 45 43 61 48 0 63 8 15 48 7 47 1 32 14 7 56 37 
44 34 44 4 25 37 18 9 53 50 3 59 36 23 34 50 3 47 46 60 21 52 55 56 6 38 52 12 18 50 1 33 58 42 12 45 63 49 2 49 11 49 33 27 23 43 52 27 58 23 31 22 50 20 52 46 8 30 11 6 4 10 43 47 43 55 24 33 18 25 52 16 25 27 62 14 45 15 49 34 18 51 6 58 17 8 6 41 15 62 25 6 45 48 44 32 5 31 40 25 41 12 32 31 24 55 58 10 23 10 51 44 37 53 47 28 1 54 17 51 20 52 48 10 17 37 10 23 
5 41 8 44 34 42 50 40 41 47 18 23 50 14 52 45 11 8 39 22 55 0 11 31 28 60 34 34 14 44 11 3 16 42 28 44 48 40 54 24 49 61 42 38 62 4 55 33 37 41 54 11 15 5 8 15 51 21 17 47 54 49 25 51 21 56 17 13 11 28 58 8 63 30 21 61 30 29 9 26 29 24 17 11 60 14 41 23 14 35 28 44 2 31 56 34 16 10 42 16 20 22 51 46 61 6 43 35 17 32 59 62 18 55 50 50 19 18 33 61 63 51 21 15 11 43 5 56 
11 38 14 16 57 50 37 45 46 3 38 12 8 2 50 57 29 25 33 15 5 27 46 54 55 10 61 63 11 33 2 17 42 59 51 49 22 6 28 27 43 12 20 60 6 49 52 15 3 6 16 19 36 52 57 42 25 46 1 38 53 43 62 1 51 12 14 51 29 47 40 26 6 52 63 34 52 32 61 23 51 47 41 21 24 26 63 57 47 45 58 13 18 41 40 50 3 22 13 18 33 60 17 62 34 9 30 27 40 29 11 36 21 62 30 5 16 16 23 57 56 61 54 44 34 18 16 8 
6 59 41 34 19 49 61 13 3 46 63 0 47 17 49 22 40 56 14 21 2 48 17 2 27 54 57 36 22 56 57 25 60 37 39 22 26 62 2 0 17 28 34 45 63 47 56 57 27 38 41 21 9 7 61 46 58 62 37 58 21 5 23 21 13 58 38 22 1 38 43 24 25 20 40 37 15 19 57 57 58 57 25 18 30 35 33 33 51 1 33 7 9 4 30 37 57 6 49 25 13 36 20 3 32 34 14 0 48 30 21 10 52 43 14 43 30 49 47 59 2 24 54 33 54 54 43 58 
36 40 34 25 40 0 29 4 9 5 20 32 60 10 11 3 41 35 27 58 42 31 10 29 36 14 47 61 15 20 63 59 44 51 44 58 25 1 29 60 23 10 5 3 53 37 27 8 6 49 63 20 56 60 48 25 56 6 12 27 44 57 5 34 9 44 51 11 51 51 24 27 53 18 18 25 3 11 12 41 35 12 28 32 17 33 22 2 20 18 45 4 12 53 42 51 53 29 57 38 3 11 28 2 40 52 56 27 37 14 48 49 12 28 18 36 24 63 8 53 52 39 17 11 11 31 47 2 
31 32 50 54 37 43 4 56 31 58 49 38 46 25 8 52 41 52 2 22 53 21 27 39 42 18 46 53 14 41 29 18 3 46 43 21 49 0 27 28 33 52 33 2 62 11 48 25 50 51 4 44 60 56 35 20 56 0 34 37 12 24 61 60 61 7 62 58 5 32 8 48 45 34 47 26 18 59 3 19 29 45 60 39 8 25 51 44 63 37 5 21 3 39 43 2 11 23 53 49 42 62 14 53 47 38 62 54 9 4 25 50 55 24 50 44 32 60 51 54 60 22 57 30 4 40 53 13 
19 32 21 41 1 21 43 23 0 27 13 45 22 53 36 57 48 48 13 36 41 52 44 14 28 14 27 30 34 51 42 23 61 56 63 36 21 6 23 5 8 10 5 24 46 27 63 16 29 5 30 19 52 11 27 8 13 3 18 31 23 37 9 48 52 22 41 50 6 55 34 25 49 60 53 45 40 46 7 44 61 47 27 62 63 60 55 45 39 14 22 42 2 39 19 26 23 42 27 27 40 27 48 44 52 24 45 56 43 39 25 44 15 43 32 52 63 25 45 38 15 38 20 52 29 25 25 30 
8 43 63 2 13 54 43 27 62 34 34 47 59 63 3 36 18 19 43 0 56 46 14 34 6 36 37 53 0 1 44 43 42 4 43 15 45 62 50 43 29 42 8 56 62 20 19 62 14 29 46 55 38 57 31 23 43 55 57 10 20 47 42 36 1 61 30 10 31 60 13 61 8 31 60 47 52 0 59 10 26 41 62 2 59 53 18 29 56 56 7 15 54 49 17 23 56 6 43 10 39 6 20 31 26 17 7 30 62 39 62 36 53 51 26 34 35 45 60 46 36 1 7 48 12 50 47 9 
56 17 60 43 3 46 22 49 21 4 14 27 1 63 9 20 19 36 14 41 27 15 54 50 33 42 48 60 4 36 47 5 51 11 29 19 0 23 53 60 27 44 13 25 52 52 8 38 9 1 2 28 9 51 56 28 61 19 9 27 10 19 26 5 58 30 29 9 54 57 38 48 40 54 27 19 53 53 62 47 26 33 47 57 2 29 53 58 28 4 56 28 48 20 39 40 6 58 59 18 8 40 34 57 4 13 13 46 13 13 23 6 31 26 59 37 5 9 3 62 17 63 47 48 32 51 60 44 
57 8 47 0 29 23 15 11 24 23 60 6 53 7 50 15 2 10 19 18 6 19 37 50 24 30 40 62 39 43 15 36 45 43 53 57 27 36 62 17 9 10 39 37 62 25 32 26 40 61 15 52 16 11 18 45 3 8 26 4 41 39 32 17 44 59 1 48 1 2 63 12 28 4 10 17 3 44 42 29 15 20 56 22 11 37 8 51 0 33 48 24 54 45 16 55 30 43 56 11 52 23 57 57 26 6 59 18 38 30 25 60 48 33 7 45 2 37 59 56 56 22 60 3 63 27 49 40 
27 31 3 6 12 36 42 8 61 27 13 6 58 61 51 6 46 53 11 60 4 60 53 14 4 45 36 28 23 12 36 54 1 34 58 0 21 25 15 40 31 7 62 41 41 4 27 59 15 34 8 19 10 61 40 55 26 23 18 35 39 13 23 47 43 35 56 27 17 7 63 56 58 55 54 33 61 14 58 14 43 13 37 40 5 43 5 28 4 18 1 63 51 22 57 6 47 6 37 0 17 33 1 18 19 2 24 14 0 7 37 10 58 8 8 22 9 46 63 24 38 62 61 40 49 21 13 22 
51 5 48 24 17 37 8 27 43 5 18 37 13 52 0 16 48 54 26 39 2 33 3 45 19 46 55 37 49 60 29 31 19 39 13 58 32 24 58 5 33 55 62 22 62 46 20 51 25 40 62 21 63 5 41 10 34 7 57 13 26 16 50 38 34 45 40 7 25 44 43 63 21 50 33 21 62 16 46 51 16 23 25 4 34 35 3 43 34 15 55 6 8 40 40 24 57 45 18 11 48 9 14 50 61 37 47 43 48 44 13 4 5 11 52 34 62 15 21 55 43 60 49 4 56 14 60 56 
51 14 33 21 48 18 15 10 41 56 5 1 50 30 60 63 15 35 14 51 9 18 36 1 10 6 7 63 39 62 60 20 42 63 35 46 23 47 40 30 63 22 56 18 10 46 24 37 18 30 8 10 6 61 18 63 46 62 17 16 29 20 42 31 34 35 7 56 47 49 45 36 21 37 17 52 57 22 16 18 28 61 42 52 51 51 33 30 14 62 56 24 46 48 11 23 12 21 8 27 54 29 44 25 52 34 23 19 11 0 36 60 22 24 22 15 30 38 23 59 10 35 4 33 3 19 8 29 
30 54 59 31 62 7 32 58 38 14 37 7 57 12 32 7 62 7 62 40 33 4 29 36 58 48 11 40 49 4 19 15 48 21 18 37 21 27 11 61 63 19 7 30 21 39 49 62 22 6 38 0 61 15 14 10 6 17 42 9 7 29 49 49 6 58 58 2 25 49 58 28 35 2 33 41 20 47 35 6 50 9 14 56 45 56 48 39 31 4 9 15 58 47 29 42 25 47 28 15 22 33 47 28 11 24 14 38 4 9 35 59 52 37 44 63 11 8 21 17 7 59 4 61 23 40 3 38 
39 4 46 24 39 53 20 29 42 55 36 22 39 22 35 15 50 28 53 56 37 4 34 37 61 28 12 18 0 17 31 27 39 9 52 33 47 47 5 31 9 2 38 23 18 11 19 22 44 5 48 5 44 22 23 10 21 50 32 4 62 44 56 25 20 27 25 3 34 61 29 57 60 23 58 34 14 12 30 50 44 44 60 27 62 59 47 50 19 5 50 38 50 31 11 18 33 50 49 48 53 35 63 58 37 36 30 48 35 46 63 62 55 9 3 25 31 61 6 43 6 17 45 50 21 50 0 33 
6 36 55 2 18 21 29 39 62 47 39 53 8 21 61 39 63 46 18 29 3 0 47 36 2 31 7 1 41 16 26 46 62 36 50 51 41 28 62 57 33 34 38 24 5 39 6 59 43 48 20 26 6 18 44 8 6 13 53 3 31 57 16 28 37 34 58 63 32 26 12 56 54 16 37 34 38 5 57 48 26 36 60 15 42 58 0 1 56 33 20 53 26 22 47 27 28 54 56 54 18 6 10 32 6 53 22 29 31 17 21 25 12 58 4 22 40 19 17 24 28 24 11 63 31 3 50 40 
14 10 40 57 26 56 53 11 3 18 45 4 57 15 4 32 2 4 59 43 59 38 17 25 19 48 26 17 16 59 37 63 25 0 8 59 45 4 39 30 0 40 42 10 14 37 24 7 0 57 41 49 56 22 29 13 31 61 58 24 46 18 52 4 17 19 19 29 3 11 23 47 18 36 38 35 18 0 3 36 15 4 50 32 33 62 6 23 59 16 61 14 18 15 22 38 1 48 34 0 46 7 32 56 16 39 50 27 55 42 50 20 26 33 2 25 34 63 39 11 56 52 22 11 38 41 12 36 
56 50 48 58 46 3 38 61 49 39 14 20 11 42 37 45 62 51 7 37 60 60 38 21 31 31 58 55 33 53 55 36 3 24 25 30 48 55 10 50 14 36 28 22 1 22 59 61 9 62 34 32 62 57 51 49 25 58 17 4 37 53 42 44 40 10 57 57 59 57 43 46 40 17 15 4 48 63 12 42 33 35 20 10 20 44 16 44 43 32 10 27 60 40 46 60 4 34 12 19 22 57 49 56 45 29 59 20 62 46 6 56 57 57 21 7 13 10 50 32 43 22 62 51 31 48 15 41 
53 22 0 52 29 15 29 41 46 38 31 55 31 46 16 46 53 60 41 9 37 5 42 47 9 59 19 30 55 6 22 2 13 23 46 31 27 37 9 4 57 47 61 33 59 26 10 34 63 3 53 12 8 9 5 55 36 45 1 34 17 10 37 20 35 50 56 46 50 57 1 5 48 57 46 32 7 38 2 57 29 8 15 30 8 2 40 26 48 58 40 55 16 52 8 16 21 7 10 14 42 33 47 62 35 23 47 56 62 7 61 7 8 41 47 9 42 18 30 51 18 4 28 48 46 22 56 18 
15 11 25 57 53 61 52 16 19 14 38 40 20 27 51 61 28 20 39 19 50 54 21 53 4 60 35 9 11 18 37 56 5 1 19 15 21 14 26 33 32 28 59 59 56 50 33 51 25 1 46 42 11 53 5 23 18 57 7 7 1 35 30 51 1 28 35 41 6 41 51 22 40 18 6 0 19 58 27 34 8 51 38 63 9 60 22 6 51 4 37 36 46 21 51 49 51 23 23 32 55 34 16 12 52 11 20 32 2 3 21 39 12 32 61 34 22 58 14 21 17 19 10 31 0 21 27 61 
23 3 54 33 16 37 14 30 20 44 11 52 60 11 40 44 34 5 56 2 21 21 19 50 36 2 5 14 45 55 30 25 9 33 39 45 20 45 46 59 43 42 8 37 4 37 28 11 47 17 14 21 8 33 28 9 16 8 15 13 30 48 39 4 53 44 17 5 1 50 35 27 2 13 58 53 35 25 36 6 59 59 58 45 63 61 35 50 24 21 19 20 43 38 43 8 23 33 22 6 43 7 23 42 42 42 55 60 37 17 12 4 14 60 21 17 53 10 59 47 20 40 45 20 1 8 54 6 
54 54 34 38 9 35 32 4 42 61 26 8 43 0 36 55 56 49 50 6 61 19 7 18 39 20 24 2 22 27 24 54 28 22 57 23 39 16 13 4 28 38 17 16 24 24 34 12 39 41 37 21 14 49 9 52 48 5 1 55 1 43 27 21 24 53 18 58 16 46 1 55 61 52 34 16 20 21 55 28 56 56 17 11 4 44 23 38 31 22 61 61 17 34 0 54 52 2 57 53 36 55 18 63 15 30 33 49 53 48 55 19 59 56 23 32 44 48 48 3 11 28 52 58 21 37 34 9 
17 1 47 4 31 51 23 24 35 38 7 27 22 22 44 29 7 1 36 8 51 28 57 44 46 31 18 52 12 31 50 59 54 37 28 6 36 59 62 31 24 39 19 63 59 58 21 26 7 41 61 62 42 55 40 52 28 60 63 20 23 24 31 53 50 10 16 62 1 26 48 42 33 11 15 54 43 14 7 38 17 41 16 28 53 50 2 21 37 50 20 8 26 62 21 6 15 34 34 36 14 28 57 55 60 6 23 26 0 0 47 47 63 14 8 59 13 63 40 40 0 34 51 1 38 36 46 52 
35 52 46 48 61 56 14 40 19 56 48 34 16 48 46 28 23 31 4 37 51 19 52 51 44 12 49 8 14 15 49 34 34 5 29 20 33 56 54 18 0 22 40 14 21 9 24 19 58 58 3 36 39 7 31 36 33 27 17 60 6 12 1 39 60 51 33 52 1 7 6 12 26 26 2 45 48 22 38 22 31 32 59 34 17 45 24 57 20 30 13 20 48 44 24 49 39 15 32 21 2 58 38 25 8 37 46 41 44 51 8 7 23 18 33 35 56 55 42 22 1 38 50 23 0 24 60 55 
12 17 21 22 18 20 43 24 62 8 9 34 37 5 1 34 53 54 6 18 44 2 24 13 9 14 41 52 37 24 0 4 44 37 25 41 21 51 2 14 49 54 25 34 23 37 7 59 63 12 21 13 9 9 6 9 21 5 13 52 23 39 54 48 5 25 1 9 38 26 44 34 31 26 29 62 57 6 1 53 38 62 22 5 27 1 40 56 32 19 37 29 5 35 30 2 53 61 9 56 15 63 55 58 17 27 51 61 28 36 41 35 59 62 35 13 44 26 59 8 18 1 38 49 20 32 20 34 
22 63 33 60 14 45 54 57 63 0 62 8 7 6 0 14 23 6 7 7 21 8 37 8 5 43 12 35 34 4 44 33 6 28 44 6 50 62 48 18 19 4 21 46 38 18 23 2 16 11 5 30 27 62 18 51 49 49 4 11 56 10 61 21 40 24 55 12 39 20 38 33 15 4 27 13 25 28 42 22 1 12 55 46 49 41 8 33 3 44 22 7 58 1 3 55 63 26 13 39 8 56 8 61 4 25 51 27 3 43 19 48 55 28 8 29 35 58 51 28 1 7 26 49 35 59 20 14 
13 62 32 17 35 18 58 54 10 40 42 47 37 47 0 20 36 62 42 59 59 60 62 31 12 62 60 12 7 2 36 23 38 38 41 38 20 16 57 16 62 63 22 7 41 59 23 27 21 9 10 39 42 27 4 43 38 62 58 11 6 2 48 25 17 4 23 3 51 41 63 22 50 10 45 11 20 9 59 23 2 61 57 16 62 44 62 6 38 49 25 0 42 19 63 6 41 43 31 13 46 17 16 63 12 43 51 19 33 46 43 5 32 4 40 22 57 8 42 23 53 16 49 56 49 37 37 32 
62 61 19 12 40 25 58 40 53 58 36 17 52 9 5 33 22 56 61 30 50 42 4 28 27 62 1 62 13 23 33 53 49 0 42 14 35 49 33 61 6 23 28 16 16 31 59 15 0 25 56 34 54 8 47 7 53 9 21 50 1 14 37 34 52 3 47 48 54 35 22 2 21 62 57 60 36 16 37 24 33 29 43 60 24 3 49 22 53 10 39 1 21 7 10 38 46 29 45 48 1 38 16 25 53 30 3 53 56 25 12 32 29 44 28 23 28 11 17 42 11 39 42 8 32 50 59 30 
48 4 32 37 38 23 62 2 18 55 14 8 3 15 41 17 17 49 44 20 36 5 60 46 23 17 29 54 55 7 56 22 20 36 2 16 55 7 18 39 23 57 22 32 44 63 20 35 63 6 18 28 15 47 19 17 6 55 24 57 54 41 24 35 34 28 35 27 47 31 12 49 40 8 4 8 2 61 36 12 57 62 32 41 20 15 14 25 37 8 20 25 16 27 20 38 61 13 51 41 0 37 16 10 59 8 15 9 26 51 61 13 13 46 47 2 47 63 55 52 28 28 40 43 55 36 18 3 
16 24 45 44 12 58 38 57 10 52 40 53 27 43 42 32 61 16 39 33 58 34 35 21 38 29 52 16 58 19 62 32 36 52 13 54 58 14 21 46 39 60 58 39 36 13 54 10 41 58 58 28 62 42 39 41 14 2 41 46 30 4 58 62 47 31 34 18 45 63 60 56 59 53 12 62 61 33 57 37 54 60 29 59 21 29 42 26 57 59 32 21 30 61 47 17 23 38 54 58 7 49 62 5 32 31 44 46 56 6 36 45 6 35 53 59 56 60 24 2 38 5 30 61 28 58 20 56 
2 23 0 27 40 0 34 45 14 49 32 32 49 35 55 40 19 22 18 63 63 50 43 35 35 3 57 40 29 44 9 11 21 40 20 3 20 0 50 22 54 13 8 20 63 6 26 1 22 51 12 52 18 19 6 50 16 32 32 60 15 54 36 37 40 59 56 20 0 20 56 15 60 59 36 23 11 4 52 35 40 62 36 20 13 54 63 2 24 39 0 14 3 34 27 43 52 11 55 34 63 12 14 48 62 43 28 23 26 32 36 27 1 60 19 21 16 42 38 6 24 17 29 41 17 22 8 7 
40 60 23 34 16 37 63 16 26 34 48 26 17 47 6 62 61 45 39 53 30 15 7 35 2 63 55 51 28 30 30 33 21 28 14 38 62 14 37 33 61 39 46 54 40 39 16 21 41 11 20 23 55 23 41 34 47 33 3 23 58 42 37 37 19 59 18 36 14 32 60 5 17 31 9 31 22 28 44 14 3 50 42 2 41 0 10 54 29 53 32 31 17 45 17 36 8 55 55 54 56 41 35 37 22 10 36 17 44 45 21 5 49 32 35 54 6 62 52 13 61 40 25 12 1 35 18 40 
2 38 30 19 2 48 17 7 63 1 8 35 21 61 27 35 5 41 59 62 27 61 59 45 56 34 29 29 42 34 12 4 25 51 62 57 18 52 33 35 32 57 21 36 18 56 33 6 51 0 14 9 7 26 60 51 22 4 5 22 9 49 11 6 24 55 31 49 42 47 23 10 24 38 6 37 60 63 53 62 27 57 20 59 62 57 33 19 38 45 50 58 6 9 25 20 5 3 25 30 55 45 37 43 25 45 0 48 22 36 10 43 61 43 31 25 55 38 4 44 33 2 30 44 34 47 5 22 
25 52 34 30 27 30 15 15 55 17 39 0 52 43 57 11 8 58 56 7 49 51 37 23 40 11 11 48 4 51 23 57 24 5 38 35 44 36 20 41 24 44 2 43 60 6 3 8 48 6 57 21 56 24 59 58 50 35 5 47 39 22 37 9 9 50 31 31 1 45 45 15 11 17 57 32 0 29 28 23 31 0 31 6 56 58 52 5 23 54 23 48 50 21 35 6 25 27 62 40 60 8 21 49 29 38 55 61 42 56 41 32 48 34 58 18 28 35 63 10 9 60 39 1 57 11 7 13 
46 38 47 31 15 22 56 43 40 51 4 35 53 36 46 27 8 61 58 28 27 32 44 5 35 51 29 52 40 2 24 42 58 11 15 55 11 27 41 14 47 5 26 14 21 45 3 54 21 40 6 48 55 60 9 19 22 43 13 7 55 12 19 36 35 46 29 25 45 63 44 40 20 5 6 3 21 4 1 2 63 42 59 44 4 57 58 19 54 20 15 12 60 31 10 33 0 50 27 31 27 44 5 8 15 47 8 50 54 47 23 8 1 32 4 10 12 59 34 1 0 47 31 31 26 14 41 33 
36 53 27 13 14 28 49 56 22 4 61 42 19 4 7 49 9 52 18 55 51 19 50 27 44 53 13 3 1 36 54 36 2 8 14 16 37 19 15 5 59 34 14 38 52 39 0 19 10 45 29 48 32 3 61 20 48 28 63 51 63 1 44 44 18 9 16 8 3 9 36 47 20 9 47 44 56 57 18 16 43 40 19 27 6 43 31 11 47 40 50 18 43 10 31 34 4 13 18 29 38 11 13 45 14 59 44 42 14 28 63 42 59 51 43 21 13 11 26 44 59 39 14 37 59 58 52 24 
33 28 18 14 25 13 45 17 39 0 40 59 33 19 46 36 7 47 3 55 57 4 21 6 33 15 13 15 27 9 22 33 11 57 45 45 4 3 43 52 44 13 6 53 22 40 42 61 3 13 43 20 59 53 20 6 0 19 29 19 37 24 47 2 14 51 54 11 57 16 25 37 45 23 51 63 7 54 24 17 51 50 61 0 22 51 59 39 42 19 6 3 61 20 37 48 14 4 45 60 5 12 29 10 56 25 63 35 18 39 54 30 49 27 28 22 45 54 49 46 27 47 46 43 53 56 13 46 
27 19 22 42 59 41 37 5 6 21 29 37 42 16 48 27 4 4 3 57 11 54 11 26 49 61 14 55 53 52 37 11 1 21 45 57 20 24 54 17 54 35 40 34 30 30 12 45 5 48 41 40 50 26 45 22 15 52 54 1 39 16 51 17 31 3 56 62 36 37 37 19 51 48 39 61 27 28 38 8 62 59 32 47 15 25 39 47 38 46 52 30 32 30 32 63 44 10 55 11 45 42 30 15 36 0 38 57 46 62 50 44 47 61 21 41 5 18 23 38 54 60 55 9 32 38 0 6 
61 13 2 51 48 52 29 55 54 56 53 55 20 45 58 55 20 41 24 11 55 26 21 47 27 19 40 4 15 25 62 42 49 13 45 19 47 26 25 38 50 32 49 1 30 29 31 63 61 28 30 60 23 46 16 34 16 40 21 32 0 38 10 38 31 62 17 9 50 35 26 52 50 55 26 39 8 4 16 34 50 39 12 18 6 36 5 28 55 49 20 26 37 9 50 7 52 34 56 8 49 8 11 43 43 57 18 34 51 29 11 53 0 34 21 27 32 4 43 31 60 34 35 10 36 7 36 35 
15 53 13 32 30 34 27 17 11 48 19 9 25 60 31 7 7 20 25 62 36 5 29 62 49 49 37 2 31 36 2 57 19 10 32 37 17 2 58 56 57 46 22 31 58 33 1 30 50 62 44 42 29 18 36 16 36 51 49 50 5 6 1 39 1 25 13 46 35 48 43 50 57 35 43 21 60 14 45 21 19 37 47 14 9 12 54 9 40 1 21 59 19 57 22 43 22 15 36 27 51 23 47 27 13 54 54 14 37 54 40 59 54 47 57 42 25 10 35 11 52 5 5 45 18 49 31 19 
28 49 37 37 37 59 51 59 55 10 23 53 52 17 6 63 61 63 12 63 45 30 19 46 11 58 23 32 11 13 43 33 33 49 39 62 5 36 23 40 9 23 17 25 21 34 27 10 52 26 11 45 32 1 25 10 34 38 41 23 38 18 36 39 32 50 14 22 33 51 37 63 7 42 5 22 54 15 22 17 38 2 12 51 5 46 22 28 6 11 6 2 0 7 27 34 4 43 33 9 46 52 23 62 56 59 17 37 44 43 3 36 28 18 60 42 13 8 41 62 10 55 43 45 5 4 10 62 
26 9 51 16 36 54 53 17 19 42 39 43 49 8 60 23 10 3 29 19 46 52 28 1 59 15 29 8 22 55 54 32 14 61 0 4 2 26 28 44 38 17 50 37 55 2 46 14 40 35 23 34 54 58 53 63 7 18 22 58 45 17 11 15 48 27 9 44 52 3 54 1 24 12 63 11 21 21 11 48 47 33 2 16 51 39 8 55 20 57 23 34 62 2 44 33 50 17 31 58 25 14 26 58 5 8 63 12 49 54 11 25 4 58 43 30 59 46 1 46 13 8 25 9 13 26 48 34 
30 8 45 29 19 22 45 62 33 16 28 54 32 33 52 24 14 16 17 8 32 60 32 42 24 26 55 58 10 9 18 22 16 29 45 59 16 40 59 15 24 38 43 18 38 48 42 48 48 22 63 32 39 51 18 50 41 26 58 54 6 63 10 13 43 47 1 20 24 58 22 2 48 28 37 25 21 6 54 21 51 36 57 9 58 29 46 57 39 40 32 24 60 10 11 35 57 32 18 13 44 25 12 35 36 52 45 13 56 57 45 23 54 6 50 18 19 3 11 27 20 24 6 46 57 13 3 37 
8 1 19 1 42 53 18 44 18 29 52 0 48 57 4 22 33 38 17 58 59 63 25 0 5 60 24 47 1 3 50 22 14 35 39 32 41 22 8 2 3 14 61 10 22 50 37 34 35 23 3 47 7 50 49 24 43 6 39 36 43 44 29 0 28 51 22 31 37 27 21 43 34 30 12 18 17 46 41 50 36 26 16 35 53 52 43 38 57 7 44 10 24 42 22 57 27 30 28 44 4 21 38 56 27 13 1 38 25 45 35 29 24 39 29 59 63 4 7 14 53 12 40 52 14 55 55 23 
41 31 6 33 29 21 28 55 47 14 29 17 21 24 26 1 47 39 35 41 22 18 7 15 58 47 5 9 29 25 18 45 29 52 0 46 27 15 8 19 35 19 39 21 38 47 14 14 59 19 54 48 25 59 56 6 41 14 4 19 60 43 2 46 10 33 24 18 55 55 9 6 63 15 26 16 47 31 45 36 25 28 12 16 41 24 8 8 20 37 9 18 22 20 11 41 39 51 37 32 48 32 41 10 30 25 17 56 20 12 21 51 0 54 8 35 24 33 23 47 5 41 53 21 11 27 1 53 
20 2 14 54 45 33 47 8 3 58 5 34 53 56 4 30 39 32 59 13 20 11 18 60 38 3 56 48 54 27 1 13 40 16 54 50 41 48 4 7 9 12 10 57 15 13 4 25 56 5 41 34 36 46 37 19 16 8 11 6 45 27 63 18 38 27 25 12 54 47 11 34 27 57 46 36 14 3 59 18 63 7 56 8 54 60 45 16 29 27 28 42 13 27 7 41 60 9 22 14 18 5 26 54 16 10 60 31 48 56 47 13 53 51 28 28 32 46 11 4 2 52 21 11 5 27 61 61 
13 55 45 16 0 9 31 45 57 5 2 57 38 23 10 32 9 39 20 40 24 45 13 18 46 6 27 10 14 30 49 49 37 40 45 46 6 23 63 4 9 58 43 32 44 53 22 31 46 8 36 9 33 2 42 41 63 63 18 45 33 3 28 53 22 47 38 14 0 21 41 21 43 62 4 9 48 5 60 4 39 41 14 8 41 9 27 31 46 5 48 41 39 4 42 3 3 4 39 5 4 8 32 47 19 57 50 7 31 56 27 46 31 52 18 29 21 53 41 23 28 2 39 21 31 26 48 22 
18 52 29 4 50 20 45 14 50 46 17 35 47 12 45 52 15 18 1 21 43 42 62 51 45 17 45 5 60 54 56 9 55 55 24 62 46 26 24 20 33 43 7 29 14 31 7 56 21 42 55 43 10 52 39 22 35 56 14 21 32 33 4 20 26 26 50 52 62 63 29 16 29 24 47 18 21 14 62 15 57 8 20 35 12 26 51 35 59 56 30 23 60 58 1 0 34 26 60 59 6 60 63 2 34 62 2 9 44 56 38 39 42 54 28 52 7 44 4 5 49 62 22 17 19 33 33 61 
47 3 62 13 0 26 2 22 47 2 29 14 35 47 61 48 47 1 32 42 7 31 58 44 44 13 24 12 49 36 56 38 7 38 5 24 1 17 43 36 24 25 62 44 36 47 42 0 30 16 22 24 31 38 63 55 22 11 31 11 22 44 51 3 9 17 25 19 41 14 31 9 35 16 41 23 30 1 26 35 4 60 24 20 60 28 32 4 33 9 28 21 3 2 47 42 23 34 37 62 53 20 51 4 6 61 24 18 52 34 56 34 11 35 45 12 30 11 25 54 24 62 13 52 61 53 48 25 
34 28 16 24 23 32 59 37 2 19 55 21 60 17 42 14 7 59 51 46 20 36 51 59 42 44 10 15 33 57 59 2 1 10 32 44 55 54 34 12 61 54 60 48 18 15 18 15 1 52 47 20 0 51 9 61 38 0 34 25 62 53 33 17 13 6 63 38 48 28 14 58 54 14 15 46 53 7 63 10 9 35 30 60 36 13 13 13 18 29 37 58 10 30 48 11 18 50 32 32 43 40 10 16 51 1 34 4 11 43 43 46 13 28 51 49 34 33 14 44 0 6 4 31 35 57 42 8 
58 45 20 60 60 42 57 4 20 19 20 48 6 34 48 11 61 57 34 25 46 16 63 25 62 25 8 38 3 61 11 24 61 17 46 36 11 1 37 19 9 62 36 1 59 34 6 45 22 58 31 59 50 26 53 1 60 35 20 59 18 1 43 41 31 31 57 56 3 29 0 44 26 19 37 35 54 37 59 20 4 24 38 47 6 6 60 13 51 40 15 55 51 17 26 18 0 4 1 6 8 54 21 21 24 10 12 46 36 1 47 31 22 39 18 9 5 32 26 18 61 42 53 48 48 55 34 36 
57 28 63 48 62 57 21 29 19 46 45 1 39 30 38 15 19 39 14 18 55 30 35 61 54 28 63 33 49 32 25 44 59 9 22 37 39 47 9 12 4 20 41 6 19 30 44 16 55 51 45 50 19 53 49 13 51 25 11 44 56 59 30 44 56 51 12 13 51 49 35 37 35 5 23 62 45 40 13 1 5 54 57 33 41 57 50 35 11 36 56 58 4 59 59 42 26 12 17 52 52 13 20 24 26 46 14 15 7 43 43 25 30 6 39 35 12 61 33 41 20 63 42 61 63 14 1 26 
19 7 3 23 2 45 8 4 24 53 52 43 38 4 35 21 63 3 0 37 63 22 13 46 9 50 22 16 59 6 25 5 0 43 32 51 27 19 33 45 60 8 9 58 41 23 49 57 4 15 7 2 58 3 6 6 13 2 18 30 43 26 58 39 34 61 39 39 10 52 2 58 4 32 9 39 7 55 14 4 46 2 23 18 19 53 3 23 23 14 27 63 25 21 28 50 1 58 25 25 24 15 43 36 12 32 63 36 45 39 53 5 36 35 2 17 41 52 32 24 19 30 8 21 40 2 2 30 
29 44 17 12 34 53 19 38 56 31 41 44 18 44 14 62 56 39 4 47 12 15 11 15 6 2 46 11 1 63 16 24 2 56 41 47 22 26 22 62 63 41 46 45 45 31 54 17 43 63 34 15 43 46 23 2 1 12 34 51 62 58 22 23 40 53 7 57 32 14 37 44 5 34 19 16 15 12 60 25 28 44 26 27 19 38 57 60 63 24 57 63 14 11 29 32 24 58 32 3 42 54 9 29 17 48 54 27 25 37 51 63 52 22 17 30 4 45 0 7 36 36 31 21 12 2 17 52 
47 46 14 60 49 18 35 5 34 32 10 6 53 41 55 13 63 42 43 51 62 28 48 49 16 4 6 32 17 57 56 1 10 4 25 35 17 57 57 38 52 52 33 46 53 58 51 55 33 24 61 50 33 12 54 58 60 30 1 31 38 59 37 59 54 53 50 46 56 53 1 49 11 46 35 49 21 54 32 2 23 62 48 21 9 51 50 28 18 28 51 20 53 6 50 11 45 13 47 3 51 5 8 6 24 59 17 49 63 42 19 55 33 9 59 40 51 39 10 30 40 7 20 28 29 32 28 39 
31 59 17 52 62 54 29 49 37 63 13 27 18 26 4 22 18 41 36 49 36 56 50 10 50 55 49 30 27 59 15 17 60 52 57 63 51 25 44 42 11 8 55 31 45 28 51 28 7 43 54 9 59 55 9 43 51 57 24 24 3 19 34 16 24 29 7 43 39 42 26 60 24 34 16 5 19 20 58 39 30 42 36 3 35 30 42 9 51 23 28 47 34 53 15 9 22 55 63 62 40 15 62 4 41 50 57 14 58 35 47 48 18 38 60 56 20 27 37 50 6 25 18 50 50 30 15 38 
53 45 32 44 40 12 20 34 22 50 27 44 47 8 28 19 0 45 12 47 11 0 53 61 26 30 7 24 29 54 18 61 54 31 49 2 4 37 47 44 60 63 42 43 14 21 0 15 62 13 61 45 6 61 43 26 50 22 24 48 27 9 17 15 33 31 42 6 57 0 46 18 11 6 11 20 22 61 11 30 18 11 37 36 48 36 14 29 34 34 26 50 7 55 56 62 47 26 22 13 47 49 20 3 26 32 34 25 47 53 59 50 53 17 18 0 5 36 40 15 46 15 52 35 37 20 14 9 
44 41 40 26 60 50 31 60 57 5 6 57 51 26 55 45 23 40 9 51 58 22 37 29 18 30 32 30 31 46 6 25 1 50 36 0 5 55 4 49 47 47 0 39 24 26 46 40 36 62 12 18 61 39 54 6 13 17 55 15 52 23 47 5 49 35 20 14 42 38 61 62 42 54 22 3 19 35 25 8 14 0 27 52 11 40 30 11 46 47 48 62 2 35 50 48 39 45 35 11 3 52 29 14 40 20 25 19 5 38 2 1 41 25 56 58 22 52 55 22 60 27 49 49 0 43 60 20 
49 47 33 32 21 39 9 22 58 47 6 52 0 25 10 54 43 47 23 36 57 41 23 44 13 39 1 51 33 28 9 2 18 35 30 61 28 56 0 41 23 13 24 29 3 15 12 27 27 15 28 28 13 54 52 3 56 30 62 9 60 7 23 39 34 25 47 52 1 48 1 3 19 40 25 10 63 15 15 57 27 5 49 41 37 15 58 51 15 33 8 52 56 17 27 40 51 24 7 57 35 63 14 10 21 52 44 29 35 3 0 26 57 44 30 58 53 4 7 5 45 31 1 40 62 31 40 42 
16 37 62 16 38 45 27 49 21 3 42 61 13 30 32 28 12 22 33 5 38 35 12 13 57 24 61 40 54 20 6 41 45 61 5 45 44 8 63 7 17 46 27 18 19 45 49 31 8 44 34 26 56 24 57 33 33 38 8 10 15 32 41 15 50 23 24 15 22 14 34 6 4 28 54 57 62 25 18 38 33 48 55 62 55 40 33 54 38 62 21 49 49 44 23 22 51 35 54 53 60 19 57 58 42 58 27 5 4 38 24 54 8 31 4 3 56 28 44 41 40 23 61 23 1 10 61 31 
1 42 7 61 63 33 54 2 27 56 20 41 36 56 26 27 55 21 62 13 56 27 27 28 19 58 35 40 27 22 18 53 57 52 12 39 23 25 52 42 19 9 30 34 33 24 36 27 32 20 13 58 40 7 44 37 12 50 50 1 0 36 24 43 42 28 52 9 57 41 5 5 0 29 6 47 56 26 53 0 12 17 8 53 29 54 1 14 51 63 29 62 32 30 13 24 55 38 8 63 12 9 54 28 50 63 61 3 51 21 8 26 14 2 46 18 40 37 8 57 32 3 3 8 26 63 3 14 
5 38 48 9 34 35 55 37 9 55 32 44 44 0 19 45 2 39 60 44 51 8 55 15 10 18 40 59 58 56 51 10 56 46 63 55 43 42 27 25 40 7 3 51 39 46 52 24 59 17 23 9 8 17 32 0 32 34 43 54 6 35 7 4 8 53 47 9 62 45 61 5 58 37 34 12 54 54 13 48 50 0 51 9 43 15 29 18 3 6 6 63 53 61 21 14 51 49 16 7 11 35 12 21 60 52 47 54 7 37 27 35 16 29 56 14 51 57 31 28 16 24 14 60 6 34 40 3 
56 33 58 23 43 38 1 1 9 3 8 59 1 2 63 52 39 31 9 54 26 3 14 56 45 28 34 47 56 20 37 39 23 5 3 17 44 15 41 8 7 11 27 35 21 31 7 50 58 43 58 27 23 35 53 55 53 59 41 50 23 8 22 31 57 29 11 26 7 19 22 58 45 2 33 58 43 15 61 4 9 2 31 1 22 53 40 20 37 49 1 20 59 41 28 12 42 11 26 40 33 18 21 25 7 19 39 6 48 39 6 36 1 55 53 55 1 2 51 25 15 33 22 58 39 10 29 0 
34 44 7 2 21 49 46 54 45 40 48 40 39 57 60 51 55 35 31 44 17 18 37 25 25 55 50 38 38 20 62 2 55 61 14 61 25 50 22 51 40 41 19 36 19 15 33 32 49 58 6 23 46 14 50 1 25 24 36 57 48 41 6 58 27 29 19 41 58 51 24 6 20 36 59 61 11 24 61 47 2 33 2 35 11 16 34 4 26 58 12 54 55 37 50 6 26 61 10 24 51 59 39 47 0 49 15 23 56 26 48 27 27 17 21 11 50 8 0 23 43 43 43 8 7 13 56 16 
16 11 61 30 18 16 14 33 45 44 48 29 15 11 50 17 29 16 20 61 62 58 55 45 36 59 59 30 4 13 15 13 32 0 56 38 32 47 51 49 45 1 16 32 43 19 27 17 36 40 44 8 35 55 0 10 63 32 31 49 39 19 31 58 7 31 45 16 25 53 8 28 14 16 10 33 11 20 11 12 32 61 20 33 35 60 7 22 41 19 34 8 28 49 41 42 25 39 47 48 16 19 14 15 15 57 19 13 17 21 21 27 54 20 58 44 32 24 49 25 53 19 29 8 36 21 60 11 
19 29 35 14 1 1 46 29 31 8 3 50 41 8 15 11 44 14 63 49 4 27 18 12 54 34 1 53 41 38 19 30 28 34 2 1 1 61 33 49 15 41 31 57 50 12 28 45 2 48 33 53 60 33 55 33 59 48 47 22 25 16 5 49 40 11 27 37 1 4 25 9 58 19 59 54 46 18 51 32 23 22 22 36 24 36 58 17 49 33 50 36 2 38 20 49 58 46 37 39 7 13 51 32 34 22 31 50 37 36 38 57 48 7 0 13 28 50 2 63 16 28 23 63 9 51 38 10 
11 4 51 20 20 38 3 43 48 35 3 47 14 11 58 56 8 40 49 50 20 8 6 0 32 52 46 13 8 0 43 53 56 61 36 56 8 55 15 52 53 38 41 43 19 29 24 61 40 53 54 45 22 22 25 51 60 15 56 61 15 19 57 10 12 31 36 13 37 38 36 18 37 30 36 20 63 28 41 53 41 45 28 47 27 51 5 33 47 32 32 51 57 61 23 16 41 30 30 34 14 17 62 22 9 27 55 43 43 36 48 13 0 5 38 23 8 32 22 60 39 39 40 18 29 17 43 20 
40 29 45 22 51 40 37 31 28 21 6 16 53 38 25 41 36 39 0 33 16 52 40 21 57 59 31 3 60 18 33 31 2 48 62 32 37 27 30 59 44 29 17 6 9 20 46 32 32 38 2 31 46 37 46 44 10 54 53 35 34 8 15 18 41 47 45 55 42 13 39 54 44 34 11 47 36 32 0 51 25 6 53 34 20 18 41 26 27 25 52 61 63 41 61 40 58 15 8 20 17 49 34 35 0 48 61 39 43 30 35 36 1 54 13 0 37 39 63 22 21 63 28 19 42 32 59 47 
